<?xml version="1.0" encoding="UTF-8"?>
<svg version="1.1" xmlns="http://www.w3.org/2000/svg" width="720" height="720">
<path d="M0 0 C2.51822891 0.01074809 5.03574716 0.00001674 7.55395508 -0.01269531 C21.98846665 -0.02734776 35.59794248 1.64934992 49.6418457 5.13574219 C50.66600586 5.379375 51.69016602 5.62300781 52.74536133 5.87402344 C74.69304016 11.21901021 94.65825374 20.69479936 113.9543457 32.26074219 C116.28174161 33.60484306 118.61755591 34.93302072 120.9543457 36.26074219 C120.9543457 36.92074219 120.9543457 37.58074219 120.9543457 38.26074219 C121.64915039 38.48375 122.34395508 38.70675781 123.05981445 38.93652344 C126.63369628 40.5715382 129.34338429 42.87869613 132.2668457 45.44824219 C132.84225098 45.94582031 133.41765625 46.44339844 134.01049805 46.95605469 C135.15221746 47.9446675 136.29161613 48.93596801 137.4284668 49.93017578 C138.67378117 51.01608992 139.93146877 52.08780098 141.19262695 53.15527344 C150.0673533 60.70705921 158.01152967 68.90368559 164.9543457 78.26074219 C166.1833444 79.82746573 167.41245044 81.39410687 168.64379883 82.95898438 C177.48633544 94.27242355 183.967964 106.02708382 189.93041992 119.05859375 C190.79138553 120.91026514 191.69782217 122.74069769 192.61450195 124.56542969 C203.52976882 146.51239293 208.38388105 171.88634357 208.9543457 196.26074219 C208.98270508 197.20433594 209.01106445 198.14792969 209.0402832 199.12011719 C209.08149376 201.84001391 209.03641805 204.54164978 208.9543457 207.26074219 C208.93645996 207.8952832 208.91857422 208.52982422 208.90014648 209.18359375 C207.91313012 240.40789236 199.99951976 271.58243285 184.7746582 298.91699219 C182.90300055 302.12168095 182.90300055 302.12168095 181.9543457 305.26074219 C181.2943457 305.26074219 180.6343457 305.26074219 179.9543457 305.26074219 C179.9027832 305.91816406 179.8512207 306.57558594 179.7980957 307.25292969 C178.57753753 311.60399356 176.09551579 314.7615772 173.4543457 318.38574219 C172.91261719 319.13911865 172.37088867 319.89249512 171.81274414 320.66870117 C165.68999157 329.11502931 159.32744752 337.13882347 151.80981445 344.40136719 C149.94323542 346.27187586 148.2615542 348.22417016 146.5793457 350.26074219 C145.7130957 351.25074219 144.8468457 352.24074219 143.9543457 353.26074219 C143.2943457 353.26074219 142.6343457 353.26074219 141.9543457 353.26074219 C141.9543457 353.92074219 141.9543457 354.58074219 141.9543457 355.26074219 C139.76079338 357.13075296 137.55950494 358.89506185 135.2668457 360.63574219 C134.01283702 361.60175506 132.75892905 362.5678987 131.50512695 363.53417969 C130.89902588 363.99695313 130.2929248 364.45972656 129.66845703 364.93652344 C128.14965178 366.10986053 126.65906472 367.31952524 125.1730957 368.53417969 C122.85406515 370.3387774 120.72231746 371.3117233 117.9543457 372.26074219 C117.9543457 372.92074219 117.9543457 373.58074219 117.9543457 374.26074219 C112.63263013 377.28174235 107.29762349 380.27806255 101.9543457 383.26074219 C101.30884766 383.62329102 100.66334961 383.98583984 99.99829102 384.359375 C54.74686108 409.67435878 -1.70319532 416.61439398 -51.77905273 402.48974609 C-68.41425468 397.45796554 -83.83981607 390.6186856 -99.0456543 382.26074219 C-99.83198242 381.85339844 -100.61831055 381.44605469 -101.4284668 381.02636719 C-114.46992453 374.18332093 -126.03707184 364.95011435 -137.0456543 355.26074219 C-137.81651367 354.61234375 -138.58737305 353.96394531 -139.3815918 353.29589844 C-144.09674556 349.31240646 -148.08278467 344.98329236 -152.0456543 340.26074219 C-152.90416992 339.266875 -153.76268555 338.27300781 -154.6472168 337.24902344 C-163.30872058 327.20023144 -170.91138999 317.07034828 -177.0456543 305.26074219 C-177.70100539 304.04601051 -178.35868735 302.83253434 -179.01831055 301.62011719 C-181.06468884 297.85280061 -183.0668308 294.06392861 -185.0456543 290.26074219 C-185.4994043 289.39320313 -185.9531543 288.52566406 -186.4206543 287.63183594 C-207.23073005 244.98487148 -209.08005502 192.31141078 -196.0456543 147.26074219 C-195.82538574 146.49648926 -195.60511719 145.73223633 -195.37817383 144.94482422 C-190.06695059 126.98232123 -182.31303308 109.9244083 -172.0456543 94.26074219 C-171.57240723 93.53709473 -171.09916016 92.81344727 -170.61157227 92.06787109 C-169.1239871 89.8102305 -167.62079839 87.56415962 -166.1081543 85.32324219 C-165.63522949 84.61780273 -165.16230469 83.91236328 -164.67504883 83.18554688 C-163.51851738 81.50599267 -162.2884826 79.87748123 -161.0456543 78.26074219 C-160.3856543 78.26074219 -159.7256543 78.26074219 -159.0456543 78.26074219 C-158.80459961 77.70128906 -158.56354492 77.14183594 -158.31518555 76.56542969 C-156.78040002 73.77920365 -154.89476135 71.71809804 -152.7331543 69.38574219 C-150.23445139 66.66820383 -147.76637782 63.97418714 -145.4831543 61.07324219 C-142.30820627 57.40984062 -138.73854241 54.3871077 -135.0456543 51.26074219 C-134.3856543 50.67421875 -133.7256543 50.08769531 -133.0456543 49.48339844 C-132.4269043 48.93554688 -131.8081543 48.38769531 -131.1706543 47.82324219 C-130.61635742 47.32953125 -130.06206055 46.83582031 -129.4909668 46.32714844 C-128.0456543 45.26074219 -128.0456543 45.26074219 -126.0456543 45.26074219 C-126.0456543 44.60074219 -126.0456543 43.94074219 -126.0456543 43.26074219 C-123.76386611 41.58923464 -121.48502202 40.0362366 -119.1081543 38.51074219 C-117.71350118 37.60207504 -116.31896924 36.69322187 -114.92456055 35.78417969 C-114.24925293 35.34686523 -113.57394531 34.90955078 -112.87817383 34.45898438 C-110.73769708 33.05937607 -108.64315679 31.59874007 -106.5456543 30.13574219 C-75.58423761 9.62958001 -36.82291601 -0.18635442 0 0 Z " fill="#338AB9" transform="translate(358.045654296875,153.7392578125)"/>
<path d="M0 0 C2.51822891 0.01074809 5.03574716 0.00001674 7.55395508 -0.01269531 C21.98846665 -0.02734776 35.59794248 1.64934992 49.6418457 5.13574219 C50.66600586 5.379375 51.69016602 5.62300781 52.74536133 5.87402344 C74.69304016 11.21901021 94.65825374 20.69479936 113.9543457 32.26074219 C116.28174161 33.60484306 118.61755591 34.93302072 120.9543457 36.26074219 C120.9543457 36.92074219 120.9543457 37.58074219 120.9543457 38.26074219 C121.64915039 38.48375 122.34395508 38.70675781 123.05981445 38.93652344 C126.63369628 40.5715382 129.34338429 42.87869613 132.2668457 45.44824219 C132.84225098 45.94582031 133.41765625 46.44339844 134.01049805 46.95605469 C135.15221746 47.9446675 136.29161613 48.93596801 137.4284668 49.93017578 C138.67378117 51.01608992 139.93146877 52.08780098 141.19262695 53.15527344 C150.0673533 60.70705921 158.01152967 68.90368559 164.9543457 78.26074219 C166.1833444 79.82746573 167.41245044 81.39410687 168.64379883 82.95898438 C177.48633544 94.27242355 183.967964 106.02708382 189.93041992 119.05859375 C190.79138553 120.91026514 191.69782217 122.74069769 192.61450195 124.56542969 C203.52976882 146.51239293 208.38388105 171.88634357 208.9543457 196.26074219 C208.98270508 197.20433594 209.01106445 198.14792969 209.0402832 199.12011719 C209.08149376 201.84001391 209.03641805 204.54164978 208.9543457 207.26074219 C208.93645996 207.8952832 208.91857422 208.52982422 208.90014648 209.18359375 C207.91313012 240.40789236 199.99951976 271.58243285 184.7746582 298.91699219 C182.90300055 302.12168095 182.90300055 302.12168095 181.9543457 305.26074219 C181.2943457 305.26074219 180.6343457 305.26074219 179.9543457 305.26074219 C179.9027832 305.91816406 179.8512207 306.57558594 179.7980957 307.25292969 C178.57753753 311.60399356 176.09551579 314.7615772 173.4543457 318.38574219 C172.91261719 319.13911865 172.37088867 319.89249512 171.81274414 320.66870117 C165.68999157 329.11502931 159.32744752 337.13882347 151.80981445 344.40136719 C149.94323542 346.27187586 148.2615542 348.22417016 146.5793457 350.26074219 C145.7130957 351.25074219 144.8468457 352.24074219 143.9543457 353.26074219 C143.2943457 353.26074219 142.6343457 353.26074219 141.9543457 353.26074219 C141.9543457 353.92074219 141.9543457 354.58074219 141.9543457 355.26074219 C139.76079338 357.13075296 137.55950494 358.89506185 135.2668457 360.63574219 C134.01283702 361.60175506 132.75892905 362.5678987 131.50512695 363.53417969 C130.89902588 363.99695313 130.2929248 364.45972656 129.66845703 364.93652344 C128.14965178 366.10986053 126.65906472 367.31952524 125.1730957 368.53417969 C122.85406515 370.3387774 120.72231746 371.3117233 117.9543457 372.26074219 C117.9543457 372.92074219 117.9543457 373.58074219 117.9543457 374.26074219 C112.63263013 377.28174235 107.29762349 380.27806255 101.9543457 383.26074219 C101.30884766 383.62329102 100.66334961 383.98583984 99.99829102 384.359375 C54.74686108 409.67435878 -1.70319532 416.61439398 -51.77905273 402.48974609 C-68.41425468 397.45796554 -83.83981607 390.6186856 -99.0456543 382.26074219 C-99.83198242 381.85339844 -100.61831055 381.44605469 -101.4284668 381.02636719 C-114.46992453 374.18332093 -126.03707184 364.95011435 -137.0456543 355.26074219 C-137.81651367 354.61234375 -138.58737305 353.96394531 -139.3815918 353.29589844 C-144.09674556 349.31240646 -148.08278467 344.98329236 -152.0456543 340.26074219 C-152.90416992 339.266875 -153.76268555 338.27300781 -154.6472168 337.24902344 C-163.30872058 327.20023144 -170.91138999 317.07034828 -177.0456543 305.26074219 C-177.70100539 304.04601051 -178.35868735 302.83253434 -179.01831055 301.62011719 C-181.06468884 297.85280061 -183.0668308 294.06392861 -185.0456543 290.26074219 C-185.4994043 289.39320313 -185.9531543 288.52566406 -186.4206543 287.63183594 C-207.23073005 244.98487148 -209.08005502 192.31141078 -196.0456543 147.26074219 C-195.82538574 146.49648926 -195.60511719 145.73223633 -195.37817383 144.94482422 C-190.06695059 126.98232123 -182.31303308 109.9244083 -172.0456543 94.26074219 C-171.57240723 93.53709473 -171.09916016 92.81344727 -170.61157227 92.06787109 C-169.1239871 89.8102305 -167.62079839 87.56415962 -166.1081543 85.32324219 C-165.63522949 84.61780273 -165.16230469 83.91236328 -164.67504883 83.18554688 C-163.51851738 81.50599267 -162.2884826 79.87748123 -161.0456543 78.26074219 C-160.3856543 78.26074219 -159.7256543 78.26074219 -159.0456543 78.26074219 C-158.80459961 77.70128906 -158.56354492 77.14183594 -158.31518555 76.56542969 C-156.78040002 73.77920365 -154.89476135 71.71809804 -152.7331543 69.38574219 C-150.23445139 66.66820383 -147.76637782 63.97418714 -145.4831543 61.07324219 C-142.30820627 57.40984062 -138.73854241 54.3871077 -135.0456543 51.26074219 C-134.3856543 50.67421875 -133.7256543 50.08769531 -133.0456543 49.48339844 C-132.4269043 48.93554688 -131.8081543 48.38769531 -131.1706543 47.82324219 C-130.61635742 47.32953125 -130.06206055 46.83582031 -129.4909668 46.32714844 C-128.0456543 45.26074219 -128.0456543 45.26074219 -126.0456543 45.26074219 C-126.0456543 44.60074219 -126.0456543 43.94074219 -126.0456543 43.26074219 C-123.76386611 41.58923464 -121.48502202 40.0362366 -119.1081543 38.51074219 C-117.71350118 37.60207504 -116.31896924 36.69322187 -114.92456055 35.78417969 C-114.24925293 35.34686523 -113.57394531 34.90955078 -112.87817383 34.45898438 C-110.73769708 33.05937607 -108.64315679 31.59874007 -106.5456543 30.13574219 C-75.58423761 9.62958001 -36.82291601 -0.18635442 0 0 Z M-46.0456543 40.94824219 C-47.06965332 41.29636963 -48.09365234 41.64449707 -49.14868164 42.00317383 C-67.20610356 48.31121431 -83.50354005 57.81674393 -98.0456543 70.26074219 C-98.85389648 70.94652344 -99.66213867 71.63230469 -100.49487305 72.33886719 C-120.66891974 89.94761124 -136.62039679 113.35050153 -144.0456543 139.26074219 C-144.0456543 139.92074219 -144.0456543 140.58074219 -144.0456543 141.26074219 C-143.46557617 141.35871094 -142.88549805 141.45667969 -142.2878418 141.55761719 C-135.59237906 142.83925692 -130.73960978 144.88867722 -126.3581543 150.32324219 C-120.56529122 158.98459695 -119.90106367 170.48525635 -119.8425293 180.61621094 C-119.83682922 181.39909988 -119.83112915 182.18198883 -119.82525635 182.98860168 C-119.81585944 184.63830232 -119.80929365 186.28802129 -119.80541992 187.93774414 C-119.79574856 190.42401024 -119.76468905 192.90943625 -119.7331543 195.39550781 C-119.64975872 207.88678987 -120.53206936 220.71468209 -128.0456543 231.26074219 C-131.84862538 234.60859097 -135.94084436 236.78216626 -141.0456543 237.26074219 C-138.9215983 259.37420186 -121.3984742 281.10299909 -104.9753418 294.92089844 C-97.79997364 300.49855128 -90.05656648 305.01253118 -82.0456543 309.26074219 C-81.16651367 309.73382813 -80.28737305 310.20691406 -79.3815918 310.69433594 C-54.39429464 323.11062446 -23.58358139 323.48941761 3.7043457 323.51074219 C4.60386963 323.51174927 5.50339355 323.51275635 6.43017578 323.51379395 C41.5439207 323.48732239 80.33404254 319.35178439 107.9543457 295.26074219 C108.77418945 294.56078125 109.5940332 293.86082031 110.4387207 293.13964844 C126.92560682 278.72611315 139.75865433 259.39898333 145.9543457 238.26074219 C145.33946289 238.07898438 144.72458008 237.89722656 144.09106445 237.70996094 C143.28282227 237.45859375 142.47458008 237.20722656 141.6418457 236.94824219 C140.84133789 236.70460938 140.04083008 236.46097656 139.21606445 236.20996094 C136.8402836 235.21287156 135.7083727 234.09706957 133.9543457 232.26074219 C133.2943457 232.26074219 132.6343457 232.26074219 131.9543457 232.26074219 C130.65119291 229.15322398 129.48932041 226.00807074 128.3918457 222.82324219 C128.14305664 222.10265625 127.89426758 221.38207031 127.63793945 220.63964844 C125.95641835 214.787955 125.76913389 209.05425366 125.71606445 203.01464844 C125.70799271 202.12647934 125.69992096 201.23831024 125.69160461 200.32322693 C125.6778134 198.4447522 125.6670692 196.56625293 125.65917969 194.68774414 C125.64772074 192.79411307 125.62736681 190.90051273 125.59765625 189.00708008 C125.13522827 159.47110757 125.13522827 159.47110757 134.45825195 148.77636719 C134.95196289 148.27621094 135.44567383 147.77605469 135.9543457 147.26074219 C136.7380957 146.45636719 137.5218457 145.65199219 138.3293457 144.82324219 C141.92053183 142.6856314 144.80068166 142.54234653 148.9543457 142.26074219 C144.7941915 119.56899201 130.71012767 98.64992242 114.9543457 82.26074219 C114.11258789 81.36742187 113.27083008 80.47410156 112.40356445 79.55371094 C98.42050433 65.08498737 82.041034 54.86265127 63.9543457 46.26074219 C63.12902344 45.85146484 62.30370117 45.4421875 61.45336914 45.02050781 C54.53161842 41.69346464 47.68353662 39.68882362 40.2043457 38.01074219 C38.57819336 37.62789062 38.57819336 37.62789062 36.91918945 37.23730469 C28.66888503 35.32331465 20.77032009 34.10455434 12.30200195 34.05761719 C11.48420761 34.05191711 10.66641327 34.04621704 9.82383728 34.04034424 C8.09676384 34.03093961 6.36967283 34.02437841 4.64257812 34.02050781 C2.05540773 34.01088561 -0.53093822 33.97985399 -3.11791992 33.94824219 C-18.15800447 33.84992154 -31.75329121 36.03956981 -46.0456543 40.94824219 Z " fill="#1E2D46" transform="translate(358.045654296875,153.7392578125)"/>
<path d="M0 0 C2.51822891 0.01074809 5.03574716 0.00001674 7.55395508 -0.01269531 C21.98846665 -0.02734776 35.59794248 1.64934992 49.6418457 5.13574219 C50.66600586 5.379375 51.69016602 5.62300781 52.74536133 5.87402344 C74.69304016 11.21901021 94.65825374 20.69479936 113.9543457 32.26074219 C116.28174161 33.60484306 118.61755591 34.93302072 120.9543457 36.26074219 C120.9543457 36.92074219 120.9543457 37.58074219 120.9543457 38.26074219 C121.64915039 38.48375 122.34395508 38.70675781 123.05981445 38.93652344 C126.63369628 40.5715382 129.34338429 42.87869613 132.2668457 45.44824219 C132.84225098 45.94582031 133.41765625 46.44339844 134.01049805 46.95605469 C135.15221746 47.9446675 136.29161613 48.93596801 137.4284668 49.93017578 C138.67378117 51.01608992 139.93146877 52.08780098 141.19262695 53.15527344 C151.997421 62.34941496 161.13286914 72.4187226 168.9543457 84.26074219 C167.92180664 84.32390625 166.88926758 84.38707031 165.82543945 84.45214844 C152.53769535 85.48767714 136.22857816 87.74458722 124.9543457 95.26074219 C124.61145508 94.77347656 124.26856445 94.28621094 123.9152832 93.78417969 C108.38872856 72.7506697 87.30204521 58.36475333 63.9543457 47.26074219 C63.12902344 46.85146484 62.30370117 46.4421875 61.45336914 46.02050781 C54.53161842 42.69346464 47.68353662 40.68882362 40.2043457 39.01074219 C38.57819336 38.62789062 38.57819336 38.62789062 36.91918945 38.23730469 C28.66888503 36.32331465 20.77032009 35.10455434 12.30200195 35.05761719 C11.48420761 35.05191711 10.66641327 35.04621704 9.82383728 35.04034424 C8.09676384 35.03093961 6.36967283 35.02437841 4.64257812 35.02050781 C2.05540773 35.01088561 -0.53093822 34.97985399 -3.11791992 34.94824219 C-18.15800447 34.84992154 -31.75329121 37.03956981 -46.0456543 41.94824219 C-47.06965332 42.29636963 -48.09365234 42.64449707 -49.14868164 43.00317383 C-67.204687 49.31071946 -83.50610529 58.81546597 -98.0456543 71.26074219 C-98.86549805 71.958125 -99.6853418 72.65550781 -100.5300293 73.37402344 C-121.41908518 91.63572913 -135.18462388 115.14591678 -144.0456543 141.26074219 C-143.46557617 141.28652344 -142.88549805 141.31230469 -142.2878418 141.33886719 C-135.53765887 141.82897948 -131.54680767 143.54520424 -126.8581543 148.63574219 C-118.7220454 160.41907231 -118.54472751 174.72587614 -118.65454102 188.54125977 C-118.67071149 190.95678525 -118.6545464 193.37065562 -118.63549805 195.78613281 C-118.61783639 208.45796874 -120.02772016 220.33015451 -127.0456543 231.26074219 C-129.6081543 233.76074219 -129.6081543 233.76074219 -132.0456543 235.26074219 C-133.0356543 235.87949219 -133.0356543 235.87949219 -134.0456543 236.51074219 C-136.46915105 237.41955347 -138.47574777 237.31146403 -141.0456543 237.26074219 C-134.39248787 257.61017064 -124.77205238 273.6592098 -110.0456543 289.26074219 C-113.53777837 292.36585251 -117.38428179 293.4792907 -121.7956543 294.69824219 C-122.54790283 294.9114209 -123.30015137 295.12459961 -124.07519531 295.34423828 C-126.3955161 295.9952583 -128.7196505 296.63035784 -131.0456543 297.26074219 C-131.72805176 297.44813965 -132.41044922 297.63553711 -133.11352539 297.82861328 C-146.72408893 301.5332438 -160.86809853 304.94675295 -175.0456543 304.26074219 C-175.3756543 305.25074219 -175.7056543 306.24074219 -176.0456543 307.26074219 C-179.08423988 301.61387181 -182.08484587 295.94878562 -185.0456543 290.26074219 C-185.77075195 288.87242187 -185.77075195 288.87242187 -186.51049805 287.45605469 C-207.25056092 244.85861916 -209.05791618 192.23489252 -196.0456543 147.26074219 C-195.82538574 146.49648926 -195.60511719 145.73223633 -195.37817383 144.94482422 C-190.06695059 126.98232123 -182.31303308 109.9244083 -172.0456543 94.26074219 C-171.57240723 93.53709473 -171.09916016 92.81344727 -170.61157227 92.06787109 C-169.1239871 89.8102305 -167.62079839 87.56415962 -166.1081543 85.32324219 C-165.63522949 84.61780273 -165.16230469 83.91236328 -164.67504883 83.18554688 C-163.51851738 81.50599267 -162.2884826 79.87748123 -161.0456543 78.26074219 C-160.3856543 78.26074219 -159.7256543 78.26074219 -159.0456543 78.26074219 C-158.80459961 77.70128906 -158.56354492 77.14183594 -158.31518555 76.56542969 C-156.78040002 73.77920365 -154.89476135 71.71809804 -152.7331543 69.38574219 C-150.23445139 66.66820383 -147.76637782 63.97418714 -145.4831543 61.07324219 C-142.30820627 57.40984062 -138.73854241 54.3871077 -135.0456543 51.26074219 C-134.3856543 50.67421875 -133.7256543 50.08769531 -133.0456543 49.48339844 C-132.4269043 48.93554688 -131.8081543 48.38769531 -131.1706543 47.82324219 C-130.61635742 47.32953125 -130.06206055 46.83582031 -129.4909668 46.32714844 C-128.0456543 45.26074219 -128.0456543 45.26074219 -126.0456543 45.26074219 C-126.0456543 44.60074219 -126.0456543 43.94074219 -126.0456543 43.26074219 C-123.76386611 41.58923464 -121.48502202 40.0362366 -119.1081543 38.51074219 C-117.71350118 37.60207504 -116.31896924 36.69322187 -114.92456055 35.78417969 C-114.24925293 35.34686523 -113.57394531 34.90955078 -112.87817383 34.45898438 C-110.73769708 33.05937607 -108.64315679 31.59874007 -106.5456543 30.13574219 C-75.58423761 9.62958001 -36.82291601 -0.18635442 0 0 Z " fill="#3289B9" transform="translate(358.045654296875,153.7392578125)"/>
<path d="M0 0 C0.80091568 -0.00970322 1.60183136 -0.01940643 2.42701721 -0.02940369 C5.01259382 -0.05429761 7.59790932 -0.0669252 10.18359375 -0.07421875 C11.06247253 -0.07683716 11.94135132 -0.07945557 12.84686279 -0.08215332 C26.16580921 -0.08641548 38.72773184 0.6402808 51.62109375 4.23828125 C52.83539063 4.55023438 54.0496875 4.8621875 55.30078125 5.18359375 C63.1331878 7.37666758 70.33248036 10.6681799 77.62109375 14.23828125 C78.93825848 14.8553284 80.25598945 15.47116793 81.57421875 16.0859375 C90.3930307 20.26288195 98.01823044 25.05561572 105.62109375 31.23828125 C106.49765625 31.91246094 107.37421875 32.58664063 108.27734375 33.28125 C131.50497722 51.48761564 150.67127487 76.45156868 158.62109375 105.23828125 C158.62109375 106.22828125 158.62109375 107.21828125 158.62109375 108.23828125 C157.98042969 108.28984375 157.33976562 108.34140625 156.6796875 108.39453125 C151.59112152 109.06188417 148.26967175 109.93943106 144.74609375 113.80078125 C137.44569123 123.31707065 135.30741333 134.07991192 135.3203125 145.84765625 C135.31602737 146.73632385 135.31174225 147.62499146 135.30732727 148.54058838 C135.30162088 150.4095373 135.30105623 152.2785084 135.30541992 154.14746094 C135.30857019 156.96719394 135.28510761 159.78586567 135.25976562 162.60546875 C135.21672388 174.53658917 135.22096569 185.77328263 141.62109375 196.23828125 C141.62109375 196.89828125 141.62109375 197.55828125 141.62109375 198.23828125 C142.15734375 198.50640625 142.69359375 198.77453125 143.24609375 199.05078125 C149.43359375 202.14453125 149.43359375 202.14453125 155.62109375 205.23828125 C143.98296532 236.7141286 123.69028926 262.38865679 92.75976562 276.72607422 C77.80076372 283.26781297 61.76853761 286.42136074 45.62109375 288.23828125 C44.85023438 288.33326904 44.079375 288.42825684 43.28515625 288.52612305 C33.84357662 289.55696321 24.35642344 289.43635421 14.87109375 289.42578125 C13.50331787 289.42537338 13.50331787 289.42537338 12.10791016 289.42495728 C-1.79877367 289.40587314 -15.57847215 289.11463066 -29.37890625 287.23828125 C-30.13913086 287.13644531 -30.89935547 287.03460938 -31.68261719 286.9296875 C-64.06068945 282.37849643 -92.90990031 268.17047804 -113.296875 242.08984375 C-119.30263265 233.86432201 -123.89849201 225.51809455 -127.87890625 216.17578125 C-128.22961182 215.35400391 -128.58031738 214.53222656 -128.94165039 213.68554688 C-130.52470969 209.83225204 -131.37890625 207.50165208 -131.37890625 203.23828125 C-130.78722656 203.07972656 -130.19554687 202.92117188 -129.5859375 202.7578125 C-122.72754566 200.73274085 -118.77845807 198.03845531 -115.25390625 191.67578125 C-110.52354913 181.11783901 -109.89809481 170.72329302 -109.98779297 159.34887695 C-110.00381379 156.93968485 -109.98789939 154.53218695 -109.96875 152.12304688 C-109.95083528 139.28402667 -110.27967964 124.87750201 -118.37890625 114.23828125 C-123.12643751 109.60943827 -127.91276559 108.14053343 -134.37890625 107.23828125 C-124.11514998 69.52106309 -98.17487321 38.47087714 -64.45703125 19.13623047 C-45.05254363 8.45291627 -22.31716148 0.22355685 0 0 Z M-30.37890625 73.23828125 C-31.56371582 73.38305908 -31.56371582 73.38305908 -32.77246094 73.53076172 C-55.80690834 76.48650939 -80.32552334 82.26235863 -95.37890625 101.23828125 C-105.58705222 116.68674856 -104.83090589 134.14026823 -104.71508789 151.92114258 C-104.69161058 155.76730613 -104.69452816 159.61276773 -104.70117188 163.45898438 C-105.32536975 204.20806436 -105.32536975 204.20806436 -87.328125 239.41015625 C-65.31662261 260.05421059 -31.93208286 265.31659792 -2.95703125 265.44140625 C-1.36420319 265.44995636 -1.36420319 265.44995636 0.26080322 265.4586792 C2.49954249 265.46806758 4.73829519 265.47463843 6.97705078 265.47851562 C10.32089941 265.48813683 13.6641097 265.51918565 17.0078125 265.55078125 C50.01685649 265.71237358 89.0053557 262.52040269 114.296875 238.77734375 C121.52000098 230.88653386 125.08796524 221.48593751 127.62109375 211.23828125 C127.94207031 209.95244141 127.94207031 209.95244141 128.26953125 208.640625 C131.63972862 192.8397721 130.83179727 175.76601504 130.86132812 159.69384766 C130.87112527 156.4779357 130.90233004 153.26264081 130.93359375 150.046875 C131.03660088 129.97110304 129.41704089 110.36758595 114.62109375 95.23828125 C99.42899167 80.76706978 76.50128759 77.38979585 56.62109375 74.23828125 C55.67524414 74.07457031 54.72939453 73.91085937 53.75488281 73.7421875 C26.46692652 69.05373495 -2.9702916 69.80009814 -30.37890625 73.23828125 Z " fill="#FBFCFC" transform="translate(348.37890625,187.76171875)"/>
<path d="M0 0 C7.90013724 6.11118055 13.38460417 15.67532107 16.04296875 25.28515625 C17.93170975 40.2799171 15.6612542 52.68910476 6.36328125 64.828125 C5.9353125 65.44300781 5.50734375 66.05789063 5.06640625 66.69140625 C-0.57464077 74.17408921 -9.62172371 78.82479277 -18.63671875 80.828125 C-32.51393122 82.27540445 -43.96570721 80.8882187 -55.44921875 72.515625 C-65.52765246 64.05921769 -72.23038517 54.12086709 -73.63671875 40.828125 C-74.75503664 27.02980272 -70.74316979 15.6282511 -62.046875 4.859375 C-45.40222352 -12.99935694 -19.50974073 -13.43941619 0 0 Z " fill="#F6F9F9" transform="translate(450.63671875,294.171875)"/>
<path d="M0 0 C9.90733164 6.55876424 16.3775701 15.64308321 19.421875 27.23046875 C21.58003956 42.31513976 18.85847761 54.26945246 10.45703125 66.859375 C6.28018937 72.25900247 0.68748382 75.55543236 -5.203125 78.8515625 C-5.92757812 79.28984375 -6.65203125 79.728125 -7.3984375 80.1796875 C-16.26910524 84.69450764 -29.12110683 84.8464972 -38.59521484 82.17773438 C-51.92618732 77.1782572 -59.63677064 68.97130442 -65.7578125 56.31640625 C-70.61856487 44.66373773 -70.69824543 32.8345556 -66.52734375 20.921875 C-61.09113211 8.31756129 -52.93253417 -0.02211435 -40.203125 -5.1484375 C-25.89064964 -9.94153018 -12.57052641 -7.54896692 0 0 Z " fill="#F6FAFA" transform="translate(324.203125,292.1484375)"/>
<path d="M0 0 C0.33 0 0.66 0 1 0 C1.27263672 1.32064453 1.27263672 1.32064453 1.55078125 2.66796875 C1.92783203 4.41013672 1.92783203 4.41013672 2.3125 6.1875 C2.55613281 7.33605469 2.79976562 8.48460937 3.05078125 9.66796875 C3.97099165 12.89817232 5.21504669 15.18507363 7 18 C7 18.66 7 19.32 7 20 C7.53625 20.268125 8.0725 20.53625 8.625 20.8125 C12.75 22.875 16.875 24.9375 21 27 C9.36187157 58.47584735 -10.93080449 84.15037554 -41.86132812 98.48779297 C-56.82033003 105.02953172 -72.85255614 108.18307949 -89 110 C-89.77085937 110.09498779 -90.54171875 110.18997559 -91.3359375 110.2878418 C-100.77751713 111.31868196 -110.26467031 111.19807296 -119.75 111.1875 C-120.66185059 111.18722809 -121.57370117 111.18695618 -122.51318359 111.18667603 C-136.41986742 111.16759189 -150.1995659 110.87634941 -164 109 C-164.76022461 108.89816406 -165.52044922 108.79632813 -166.30371094 108.69140625 C-195.47498274 104.59097585 -220.20423045 92.97786911 -241 72 C-241.33 71.34 -241.66 70.68 -242 70 C-231.75094648 70.84008635 -222.85972194 73.53736232 -213.4453125 77.60546875 C-207.14450224 80.15579671 -200.66168042 82.19730898 -194.19335938 84.27856445 C-192.73517902 84.75818633 -191.2830744 85.25670405 -189.83789062 85.77416992 C-183.93258787 87.86508355 -178.04928528 89.04874911 -171.875 90.0625 C-170.47894531 90.30323242 -170.47894531 90.30323242 -169.0546875 90.54882812 C-166.04010673 91.0587674 -163.0214803 91.5327416 -160 92 C-158.88181885 92.18312744 -157.7636377 92.36625488 -156.61157227 92.55493164 C-146.11336518 94.14217492 -135.78715631 94.35607314 -125.1875 94.3125 C-124.2901413 94.31100952 -123.39278259 94.30951904 -122.4682312 94.3079834 C-83.47060458 94.19190743 -44.01703305 88.88722985 -14.8515625 60.94140625 C-2.34155569 47.80316766 0.36646566 30.22337884 0.125 12.875 C0.11597656 11.63234375 0.10695313 10.3896875 0.09765625 9.109375 C0.07429729 6.07270996 0.04154283 3.03646147 0 0 Z " fill="#BDC1CC" transform="translate(483,366)"/>
<path d="M0 0 C0.66 0 1.32 0 2 0 C1.79503906 0.71285156 1.59007812 1.42570312 1.37890625 2.16015625 C1.10949219 3.11792969 0.84007812 4.07570313 0.5625 5.0625 C0.29566406 6.00222656 0.02882812 6.94195312 -0.24609375 7.91015625 C-2.09895747 15.5040174 -2.16053993 22.84451796 -2.16796875 30.6328125 C-2.17129715 31.86047333 -2.17462555 33.08813416 -2.17805481 34.35299683 C-2.18311024 36.95358914 -2.18546356 39.55418793 -2.18530273 42.15478516 C-2.18746565 46.06294029 -2.20557078 49.97080189 -2.22460938 53.87890625 C-3.07762352 94.24828479 -3.07762352 94.24828479 14.2734375 129.39453125 C36.28490657 149.8622095 69.55803275 155.0787957 98.421875 155.203125 C100.01470306 155.21167511 100.01470306 155.21167511 101.63970947 155.22039795 C103.87844874 155.22978633 106.11720144 155.23635718 108.35595703 155.24023438 C111.69980566 155.24985558 115.04301595 155.2809044 118.38671875 155.3125 C150.70893041 155.47073001 189.96869079 152.5283789 214.8984375 129.31640625 C221.98476196 121.50564342 225.5043982 112.09584363 228 102 C228.21398437 101.14277344 228.42796875 100.28554688 228.6484375 99.40234375 C232.47930195 81.44169664 231.12656552 62.0469968 231.0625 43.8125 C231.05747103 41.29752694 231.05291061 38.7825529 231.04882812 36.26757812 C231.03794232 30.17836355 231.02131672 24.08918654 231 18 C232.58788884 20.8225509 233.25747649 22.893762 233.31884766 26.12597656 C233.34865219 27.32676849 233.34865219 27.32676849 233.37905884 28.55181885 C233.39638565 29.83327789 233.39638565 29.83327789 233.4140625 31.140625 C233.44311172 32.46389801 233.44311172 32.46389801 233.4727478 33.81390381 C233.53242848 36.62583816 233.57888283 39.4378137 233.625 42.25 C233.66319038 44.15887181 233.70224273 46.06772659 233.7421875 47.9765625 C233.83973998 52.65095198 233.91939939 57.32516451 234 62 C234.33 53.09 234.66 44.18 235 35 C235.33 35 235.66 35 236 35 C236.14550972 40.63347061 236.28774596 46.26701213 236.42724609 51.90063477 C236.47489931 53.80788274 236.52337109 55.71511048 236.57275391 57.62231445 C236.73963122 64.08114779 236.88567675 70.54001199 237 77 C237.01573059 77.88855682 237.03146118 78.77711365 237.04766846 79.69259644 C237.08711889 82.24820981 237.11264052 84.8035438 237.1328125 87.359375 C237.14453491 88.10915115 237.15625732 88.85892731 237.16833496 89.63142395 C237.22539634 105.22531008 231.35085155 120.32478142 220.52734375 131.5625 C211.08933843 140.66499663 201.8842144 146.68242919 190 152 C188.29070312 152.78890625 188.29070312 152.78890625 186.546875 153.59375 C182.5904148 155.16239061 178.70983905 156.15538624 174.5625 157.0625 C173.12617613 157.38616031 171.68997756 157.71037718 170.25390625 158.03515625 C169.54258545 158.19338867 168.83126465 158.35162109 168.09838867 158.51464844 C166.10523878 158.97565856 164.12609451 159.49603381 162.1484375 160.01953125 C113.88842295 172.09778504 56.26447623 163.84411081 11.484375 143.39453125 C7.94470045 141.97786778 4.8251573 141.40829001 1.0625 140.875 C-6.58657374 139.28852545 -9.75056691 136.38342787 -14 130 C-14.65226563 129.071875 -15.30453125 128.14375 -15.9765625 127.1875 C-20.24029047 120.7342901 -23.47516951 114.0390998 -26.5 106.9375 C-26.850625 106.11588379 -27.20125 105.29426758 -27.5625 104.44775391 C-29.14570438 100.59427912 -30 98.26356962 -30 94 C-29.40832031 93.84144531 -28.81664062 93.68289063 -28.20703125 93.51953125 C-21.34863941 91.4944596 -17.39955182 88.80017406 -13.875 82.4375 C-9.12175641 71.82303663 -8.54539718 61.4301011 -8.66381836 50.00073242 C-8.68742899 47.56981094 -8.68435437 45.13999194 -8.67773438 42.70898438 C-8.69543836 33.6087915 -9.25654263 24.95680019 -11 16 C-7.7611901 18.44885626 -7.04804308 19.66919892 -6.45410156 23.75878906 C-6.41299541 25.26065427 -6.39303229 26.76319928 -6.390625 28.265625 C-6.36582062 29.45572174 -6.36582062 29.45572174 -6.34051514 30.66986084 C-6.29204384 33.19665269 -6.27066713 35.72284281 -6.25 38.25 C-6.22183943 39.96617609 -6.19191188 41.68232416 -6.16015625 43.3984375 C-6.08628564 47.59890878 -6.03670613 51.7990462 -6 56 C-5.94465088 54.78006348 -5.88930176 53.56012695 -5.83227539 52.30322266 C-5.62438442 47.73701443 -5.41292549 43.17097698 -5.20043945 38.60498047 C-5.1093106 36.63627465 -5.01912365 34.66752498 -4.92993164 32.69873047 C-4.80087506 29.85371789 -4.66832739 27.00888511 -4.53515625 24.1640625 C-4.49656998 23.29697662 -4.4579837 22.42989075 -4.41822815 21.53652954 C-4.21011805 17.16189109 -3.94480531 12.79266342 -3.59155273 8.42724609 C-3.52677231 7.60243744 -3.46199188 6.77762878 -3.39524841 5.92782593 C-3.26481644 5.29164337 -3.13438446 4.65546082 -3 4 C-2.34 3.67 -1.68 3.34 -1 3 C-0.67 2.01 -0.34 1.02 0 0 Z " fill="#F5F9FA" transform="translate(247,297)"/>
<path d="M0 0 C6.65790936 3.15374654 10.00550925 8.46126022 13 15 C16.0105471 25.32490449 16.47605327 35.59441398 16.39111328 46.28051758 C16.37494281 48.69604306 16.3911079 51.10991343 16.41015625 53.52539062 C16.42781791 66.19722655 15.01793413 78.06941232 8 89 C5.4375 91.5 5.4375 91.5 3 93 C2.38125 93.4125 1.7625 93.825 1.125 94.25 C-4.26347957 96.15181632 -9.84761674 95.11615741 -15 93 C-23.41005012 87.29704756 -26.15712837 77.47424631 -28.1171875 67.9609375 C-29.26527522 61.27163313 -29.34327021 54.64846048 -29.3125 47.875 C-29.30758545 46.59906982 -29.3026709 45.32313965 -29.29760742 44.00854492 C-28.93108509 14.38038301 -28.93108509 14.38038301 -19.4140625 4.32421875 C-13.38380914 -0.89709819 -7.72139672 -0.6771505 0 0 Z " fill="#1D2D48" transform="translate(223,296)"/>
<path d="M0 0 C5.0250036 1.87850602 7.37171556 5.23397219 9.8125 9.875 C14.77816217 20.88086107 15.16677827 31.47802002 15.13037109 43.35375977 C15.1250212 45.42927384 15.13033635 47.50457071 15.13671875 49.58007812 C15.13980839 56.45854534 14.95141487 63.18152679 14 70 C7.06238865 69.44499109 3.35215413 67.69933555 -1.1171875 62.5703125 C-5.4139696 57.05024725 -8 53.06406975 -8 46 C-8.66 46 -9.32 46 -10 46 C-10 62.17 -10 78.34 -10 95 C-15.56280613 93.88743877 -18.03330482 92.72616824 -21.35546875 88.12109375 C-28.05570625 77.13741995 -27.37278585 64.4910743 -27.37060547 52.04980469 C-27.37496931 49.26955434 -27.41135924 46.49090748 -27.44921875 43.7109375 C-27.53617668 29.9971064 -27.16752887 15.39802701 -17 5 C-16.56042969 4.47664063 -16.12085938 3.95328125 -15.66796875 3.4140625 C-11.25955514 -1.18491654 -5.88355265 -1.02769479 0 0 Z " fill="#338CBB" transform="translate(510,296)"/>
<path d="M0 0 C4.9286175 3.70903613 8.28869742 9.11218601 10.21875 14.90234375 C10.99850119 24.7323219 10.58709648 33.10472262 4.5234375 41.15234375 C-0.70654422 46.91167585 -6.5827159 50.20760878 -14.32421875 51.2421875 C-22.31530825 51.55191965 -28.92696422 49.74213058 -35.09375 44.58984375 C-41.99178882 38.0483636 -44.77021242 31.55762349 -45.21875 22.08984375 C-45.04960726 14.56299185 -42.73794177 9.20192182 -37.7265625 3.609375 C-26.58026777 -6.97767657 -13.19270071 -8.1297125 0 0 Z " fill="#1B1E2D" transform="translate(316.78125,307.09765625)"/>
<path d="M0 0 C7.37060856 7.57534769 9.61752711 14.21671977 9.53125 24.65625 C9.02692789 31.21243737 7.05364428 36.1851247 2.8125 41.1875 C1.966875 41.88875 1.12125 42.59 0.25 43.3125 C-0.554375 44.034375 -1.35875 44.75625 -2.1875 45.5 C-9.43689282 50.62761931 -18.28060798 49.9903946 -26.75 49.3125 C-33.7802001 47.53094702 -39.05400382 42.23322601 -43.07421875 36.38671875 C-47.01538512 29.04370351 -47.15111941 19.82940767 -45.125 11.8515625 C-41.87199414 4.50325462 -35.76624756 -1.21845572 -28.375 -4.1875 C-17.79668132 -7.4558357 -9.35742774 -5.74205793 0 0 Z " fill="#1A1D2C" transform="translate(440.75,307.6875)"/>
<path d="M0 0 C4.47613826 0.571951 7.44371067 2.31984372 11.25 4.6875 C19.1363606 9.35205127 27.19686702 12.5014582 36 15 C36.74475586 15.21172852 37.48951172 15.42345703 38.25683594 15.64160156 C59.41081705 21.31442863 86.81406503 22.0755272 108 16 C108.81146484 15.77425293 109.62292969 15.54850586 110.45898438 15.31591797 C121.79374203 12.07711747 131.89730546 7.8868639 141.9453125 1.72265625 C145 0 145 0 148 0 C148.70005949 2.07914664 149.38462244 4.16351586 150.0625 6.25 C150.44535156 7.41015625 150.82820312 8.5703125 151.22265625 9.765625 C152.3628678 14.5098218 152.3628678 14.5098218 151 17 C141.02638744 22.915384 128.47126282 25.52809306 117.25 28.125 C116.58468262 28.28363525 115.91936523 28.44227051 115.23388672 28.60571289 C101.11788138 31.73876143 86.78273945 32.41265184 72.375 32.375 C71.54683777 32.37412384 70.71867554 32.37324768 69.86541748 32.37234497 C44.87042307 32.28554637 19.7289084 27.8333392 -3 17 C-3.34548714 10.66606918 -2.29342747 5.89738492 0 0 Z " fill="#B9BEC8" transform="translate(286,471)"/>
<path d="M0 0 C6.63972003 2.08133248 6.63972003 2.08133248 9.1875 5.25 C9.65542969 5.81203125 10.12335938 6.3740625 10.60546875 6.953125 C18.45280554 18.47134482 18.49791167 32.84445865 18.39111328 46.28051758 C18.37494281 48.69604306 18.3911079 51.10991343 18.41015625 53.52539062 C18.42782667 66.20351427 17.01062743 78.06011236 10 89 C7.24117224 91.75882776 4.94474985 93.57734823 1 94 C-0.86687577 92.13312423 -0.12006498 89.45718552 -0.12442017 86.97367859 C-0.12082489 86.10765518 -0.11722961 85.24163177 -0.11352539 84.34936523 C-0.11367142 83.44213715 -0.11381744 82.53490906 -0.1139679 81.60018921 C-0.11326841 78.58630015 -0.10547434 75.57247207 -0.09765625 72.55859375 C-0.0957922 70.47494033 -0.09436824 68.39128646 -0.09336853 66.30763245 C-0.08954234 60.81176554 -0.0797112 55.31592487 -0.06866455 49.82006836 C-0.0584526 44.21663773 -0.05387137 38.61320287 -0.04882812 33.00976562 C-0.03808902 22.00649886 -0.02101139 11.00325161 0 0 Z " fill="#338CBB" transform="translate(221,296)"/>
<path d="M0 0 C4.47613826 0.571951 7.44371067 2.31984372 11.25 4.6875 C22.61734487 11.47035163 35.15693584 15.07373222 48 18 C48 21.96 48 25.92 48 30 C42.56895942 30.17912403 37.68159748 29.57179429 32.375 28.4375 C31.56538818 28.26621582 30.75577637 28.09493164 29.92163086 27.91845703 C18.83924719 25.44583436 7.11027889 22.26413562 -3 17 C-3.34548714 10.66606918 -2.29342747 5.89738492 0 0 Z " fill="#F4F5F6" transform="translate(286,471)"/>
<path d="M0 0 C4.01259841 0.51976663 5.94236952 1.49070856 8.8125 4.3125 C17.06702413 11.88431913 26.39596948 14.51714309 37.5234375 14.3125 C48.14298354 13.35793406 57.92580502 9.34847579 65.3125 1.5625 C65.869375 1.046875 66.42625 0.53125 67 0 C69.25 0.25 69.25 0.25 71 1 C71.3125 3.1875 71.3125 3.1875 71 6 C69 8.4375 69 8.4375 66 11 C65.41863281 11.49757813 64.83726562 11.99515625 64.23828125 12.5078125 C52.78383418 21.75501318 40.20027317 22.85064753 26 22 C15.99233942 20.58882923 6.13458344 14.55748704 -0.1171875 6.64453125 C-1 5 -1 5 -0.875 2.0625 C-0.58625 1.381875 -0.2975 0.70125 0 0 Z " fill="#0F223B" transform="translate(325,387)"/>
<path d="M0 0 C0.99 0 1.98 0 3 0 C3 1.65 3 3.3 3 5 C2.01 5 1.02 5 0 5 C0 6.32 0 7.64 0 9 C-2.84610101 11.13457576 -5.508067 12.35334574 -9 13 C-9 13.66 -9 14.32 -9 15 C-12.50776784 16.60355101 -15.14354879 17.22036864 -19 17 C-19.33 17.99 -19.66 18.98 -20 20 C-22.87506421 20.02712325 -25.74986908 20.04689851 -28.625 20.0625 C-29.83736328 20.07506836 -29.83736328 20.07506836 -31.07421875 20.08789062 C-35.50341918 20.1058955 -39.63883424 19.89622662 -44 19 C-43.01 17.515 -43.01 17.515 -42 16 C-39.95629883 15.61523438 -39.95629883 15.61523438 -37.45703125 15.59375 C-36.54759766 15.57183594 -35.63816406 15.54992187 -34.70117188 15.52734375 C-33.74791016 15.51832031 -32.79464844 15.50929688 -31.8125 15.5 C-21.32653971 15.5023836 -21.32653971 15.5023836 -12.34765625 10.53515625 C-11.68056641 9.77525391 -11.68056641 9.77525391 -11 9 C-9.49355136 7.79430403 -7.9716718 6.60771671 -6.4375 5.4375 C-4.15365781 3.69367961 -2.03269458 2.03269458 0 0 Z " fill="#181B2C" transform="translate(392,387)"/>
<path d="M0 0 C1.98 0.99 1.98 0.99 4 2 C3.01 2.495 3.01 2.495 2 3 C2 32.37 2 61.74 2 92 C2.66 92 3.32 92 4 92 C4 91.34 4 90.68 4 90 C5.96147874 88.61061923 7.96166576 87.2739589 10 86 C9.875 87.75 9.875 87.75 9 90 C6.125 92.3125 6.125 92.3125 3 94 C2.01 93.67 1.02 93.34 0 93 C0 62.31 0 31.62 0 0 Z " fill="#36759D" transform="translate(221,296)"/>
<path d="M0 0 C-0.75170898 1.93188477 -0.75170898 1.93188477 -2 4 C-3.79321289 4.74194336 -3.79321289 4.74194336 -5.97265625 5.08984375 C-7.18634888 5.30253906 -7.18634888 5.30253906 -8.42456055 5.51953125 C-9.73034058 5.72642578 -9.73034058 5.72642578 -11.0625 5.9375 C-23.94907837 8.24394758 -36.09689106 11.45889756 -48 17 C-48.99 17 -49.98 17 -51 17 C-51.33 16.01 -51.66 15.02 -52 14 C-45.62827008 10.53627585 -39.28227832 8.39516761 -32.3125 6.4375 C-31.24974854 6.13448975 -30.18699707 5.83147949 -29.09204102 5.51928711 C-7.66062225 -0.53446202 -7.66062225 -0.53446202 0 0 Z " fill="#3987AE" transform="translate(332,156)"/>
<path d="M0 0 C0.99 0.33 1.98 0.66 3 1 C2.00472427 4.89816329 0.85370347 8.42813916 -0.875 12.0625 C-3.18775662 17.09210083 -4.59308613 22.29354254 -6.05859375 27.62109375 C-7.22417648 31.80461684 -8.55689829 35.90541624 -10 40 C-10.33 40.99 -10.66 41.98 -11 43 C-11.33 43.66 -11.66 44.32 -12 45 C-13.485 45.495 -13.485 45.495 -15 46 C-14.32389531 40.19807839 -12.97934588 34.73685422 -11.375 29.125 C-11.11501221 28.21331055 -10.85502441 27.30162109 -10.5871582 26.36230469 C-4.01790457 4.01790457 -4.01790457 4.01790457 0 0 Z " fill="#3A85AF" transform="translate(174,270)"/>
<path d="M0 0 C1.75143714 3.50287429 2.25059263 4.53121177 2.31884766 8.12597656 C2.33871735 8.92650452 2.35858704 9.72703247 2.37905884 10.55181885 C2.39061005 11.40612488 2.40216125 12.26043091 2.4140625 13.140625 C2.43342865 14.02280701 2.4527948 14.90498901 2.4727478 15.81390381 C2.53242848 18.62583816 2.57888283 21.4378137 2.625 24.25 C2.66319038 26.15887181 2.70224273 28.06772659 2.7421875 29.9765625 C2.83973998 34.65095198 2.91939939 39.32516451 3 44 C3.33 35.09 3.66 26.18 4 17 C4.33 17 4.66 17 5 17 C5.07411371 22.49923749 5.12858464 27.99818479 5.16479492 33.49780273 C5.17988873 35.36894799 5.20036589 37.24005783 5.22631836 39.11108398 C5.26267593 41.79940526 5.27972015 44.48725913 5.29296875 47.17578125 C5.30845261 48.01337479 5.32393646 48.85096832 5.33988953 49.71394348 C5.34161208 55.64792789 5.34161208 55.64792789 3.49702454 57.54899597 C2.75599739 58.26724297 2.75599739 58.26724297 2 59 C1.6363838 62.20138068 1.6363838 62.20138068 1.8125 65.6875 C1.83957031 66.86699219 1.86664063 68.04648437 1.89453125 69.26171875 C1.92933594 70.16535156 1.96414063 71.06898438 2 72 C1.01 72.495 1.01 72.495 0 73 C0 48.91 0 24.82 0 0 Z " fill="#E0F6FC" transform="translate(478,315)"/>
<path d="M0 0 C1.98 0.66 3.96 1.32 6 2 C6 2.66 6 3.32 6 4 C7.03253906 4.32484375 7.03253906 4.32484375 8.0859375 4.65625 C11.83441493 6.38477042 14.55010927 8.78314449 17.625 11.5 C22.15057325 15.45403674 22.15057325 15.45403674 27 19 C26.67 20.32 26.34 21.64 26 23 C25.01 22.67 24.02 22.34 23 22 C23 21.34 23 20.68 23 20 C22.278125 19.95875 21.55625 19.9175 20.8125 19.875 C16.87684462 18.65057388 15.48346318 16.20236042 13 13 C12.01 12.34 11.02 11.68 10 11 C10 10.34 10 9.68 10 9 C9.236875 8.896875 8.47375 8.79375 7.6875 8.6875 C4.75657342 7.93772808 3.98482838 7.16526733 2 5 C1.01 4.67 0.02 4.34 -1 4 C-0.67 2.68 -0.34 1.36 0 0 Z " fill="#3C86B0" transform="translate(473,188)"/>
<path d="M0 0 C0.66 0 1.32 0 2 0 C0.67593009 3.74165028 -0.96327744 6.41365169 -3.4375 9.5 C-13.09931986 22.54081697 -19.86150736 37.67124769 -25 53 C-23.02 53 -21.04 53 -19 53 C-19 53.33 -19 53.66 -19 54 C-19.67546875 54.06058594 -20.3509375 54.12117188 -21.046875 54.18359375 C-21.93890625 54.26738281 -22.8309375 54.35117187 -23.75 54.4375 C-24.63171875 54.51871094 -25.5134375 54.59992188 -26.421875 54.68359375 C-28.69350452 54.96238465 -30.79851823 55.38790577 -33 56 C-33 55.34 -33 54.68 -33 54 C-30.35261084 52.5393715 -29.10551666 52 -26 52 C-25.89042969 51.43152344 -25.78085938 50.86304688 -25.66796875 50.27734375 C-24.61712726 45.15983111 -23.14442073 40.75501987 -21 36 C-20.62691369 34.67723944 -20.26953585 33.34767923 -20 32 C-19.34 32 -18.68 32 -18 32 C-17.505 27.545 -17.505 27.545 -17 23 C-16.01 22.67 -15.02 22.34 -14 22 C-13.6278958 20.67696283 -13.29369827 19.34262065 -13 18 C-12.34 17.67 -11.68 17.34 -11 17 C-9.87775145 15.11986894 -9.87775145 15.11986894 -8.875 12.9375 C-8.52179688 12.20402344 -8.16859375 11.47054687 -7.8046875 10.71484375 C-7.53914063 10.14894531 -7.27359375 9.58304688 -7 9 C-6.34 9 -5.68 9 -5 9 C-4.731875 8.443125 -4.46375 7.88625 -4.1875 7.3125 C-2.89100504 4.78774666 -1.57523677 2.36285516 0 0 Z " fill="#4483A4" transform="translate(239,242)"/>
<path d="M0 0 C0.99 0 1.98 0 3 0 C3.25523437 0.87398438 3.25523437 0.87398438 3.515625 1.765625 C6.94815782 13.93900656 6.94815782 13.93900656 11.8125 25.5625 C13 28 13 28 12 31 C11.34 30.67 10.68 30.34 10 30 C10 29.34 10 28.68 10 28 C9.01 27.67 8.02 27.34 7 27 C6.0168457 24.94628906 6.0168457 24.94628906 5.17578125 22.265625 C4.86962891 21.29882812 4.56347656 20.33203125 4.24804688 19.3359375 C3.93931641 18.31757813 3.63058594 17.29921875 3.3125 16.25 C2.99216797 15.24710937 2.67183594 14.24421875 2.34179688 13.2109375 C0.92404608 8.6523699 -0.19746491 4.81056981 0 0 Z " fill="#3C85B2" transform="translate(161,406)"/>
<path d="M0 0 C2 2 2 2 2.3125 4.9375 C2 8 2 8 0.8125 9.875 C-1.65507108 11.40659584 -3.14519831 11.42822025 -6 11 C-7.8125 9.875 -7.8125 9.875 -9 8 C-9.4375 5 -9.4375 5 -9 2 C-6.12524616 -1.3006433 -4.03854228 -1.38160657 0 0 Z " fill="#368CB6" transform="translate(438,335)"/>
<path d="M0 0 C4.54892917 6.82339376 3.15471842 16.41185043 3.13037109 24.35375977 C3.1250212 26.42927384 3.13033635 28.50457071 3.13671875 30.58007812 C3.13980839 37.45854534 2.95141487 44.18152679 2 51 C-0.3431213 50.74438677 -2.67843403 50.40729228 -5 50 C-5.33 49.34 -5.66 48.68 -6 48 C-3.69 48.33 -1.38 48.66 1 49 C0.67 32.83 0.34 16.66 0 0 Z " fill="#3E81AC" transform="translate(522,315)"/>
<path d="M0 0 C0.33 0 0.66 0 1 0 C2.17311964 5.02765562 3.19074854 10.02543127 4 15.125 C4.72076113 19.53896349 5.60720946 23.73969951 7 28 C7.20367187 28.64453125 7.40734375 29.2890625 7.6171875 29.953125 C10.13845384 37.37527985 14.33264977 42.63093136 20 48 C20.7734375 48.86625 20.7734375 48.86625 21.5625 49.75 C23.30475797 51.26500693 24.74879482 51.61186118 27 52 C26.67 52.99 26.34 53.98 26 55 C15.46185521 48.97820298 7.79720648 39.59438288 4 28 C1.91806717 20.22557515 -0.18511454 12.21755958 -0.0625 4.125 C-0.05347656 3.34382813 -0.04445312 2.56265625 -0.03515625 1.7578125 C-0.02355469 1.17773438 -0.01195312 0.59765625 0 0 Z " fill="#4B8AAC" transform="translate(245,379)"/>
<path d="M0 0 C1.38125018 2.76250036 1.19079306 4.94731099 1 8 C-1 10 -1 10 -4.5 10.3125 C-6.2325 10.1578125 -6.2325 10.1578125 -8 10 C-10.15502531 6.76746204 -10.46856135 5.74849077 -10 2 C-7.59587398 -2.24257532 -4.222762 -1.01659085 0 0 Z " fill="#EEEFEF" transform="translate(293,318)"/>
<path d="M0 0 C0.33 0.99 0.66 1.98 1 3 C0.0925 3.721875 -0.815 4.44375 -1.75 5.1875 C-3.79692101 6.88529663 -5.32084079 8.40105098 -7 10.5 C-9.40215389 13.50269236 -12.0090787 15.58180831 -15 18 C-16.01680311 18.98290968 -17.02738219 19.97334787 -18 21 C-18.66 19.68 -19.32 18.36 -20 17 C-17.7747323 14.7747323 -15.54907168 12.54989748 -13.3203125 10.328125 C-12.01255541 9.01596469 -10.7106557 7.69769998 -9.4296875 6.359375 C-7.12653506 3.95482592 -5.08620661 2.27705101 -2 1 C-1.34 0.67 -0.68 0.34 0 0 Z " fill="#3885B0" transform="translate(223,208)"/>
<path d="M0 0 C1 1 1 1 1.25 4.375 C1 8 1 8 -0.1875 10 C-2 11 -2 11 -4.5625 10.8125 C-7 10 -7 10 -9 8 C-9.33302312 4.8695827 -9.47671956 2.82101702 -7.875 0.0625 C-5.04805609 -1.53943488 -3.05073223 -0.79584319 0 0 Z " fill="#EDEFEF" transform="translate(415,318)"/>
<path d="M0 0 C3.4375 0.1875 3.4375 0.1875 4.4375 1.1875 C4.9001087 7.43271739 4.9001087 7.43271739 3.25 10.125 C0.79276759 11.56544659 -0.76413168 11.6180182 -3.5625 11.1875 C-5.86413882 7.73504176 -5.90740322 6.24011287 -5.5625 2.1875 C-3.5625 0.1875 -3.5625 0.1875 0 0 Z " fill="#3D8DB1" transform="translate(311.5625,334.8125)"/>
<path d="M0 0 C3.38325552 2.25550368 3.78739152 3.30929259 5.1875 7 C5.53167969 7.886875 5.87585938 8.77375 6.23046875 9.6875 C7 12 7 12 7 14 C7.99 14 8.98 14 10 14 C10 14.66 10 15.32 10 16 C12.31 16 14.62 16 17 16 C17 15.34 17 14.68 17 14 C21.29 14 25.58 14 30 14 C30 14.33 30 14.66 30 15 C22.58856436 16.42625566 15.55137932 17.30071865 8 17 C7.67 17.99 7.34 18.98 7 20 C4.03 14.39 1.06 8.78 -2 3 C-1.34 2.01 -0.68 1.02 0 0 Z " fill="#3E85AB" transform="translate(175,441)"/>
<path d="M0 0 C0.99 0 1.98 0 3 0 C7.51145664 14.42054889 6.44173381 27.5570099 3 42 C2.01 42 1.02 42 0 42 C0 42.66 0 43.32 0 44 C-1.485 44.495 -1.485 44.495 -3 45 C-1.99062467 42.47656167 -0.98130104 39.95543642 0.0703125 37.44921875 C4.84776087 24.93938172 4.02067417 12.63640454 0 0 Z " fill="#3B83AE" transform="translate(463,310)"/>
<path d="M0 0 C0.74765625 0.27714844 1.4953125 0.55429687 2.265625 0.83984375 C3.74289062 1.38318359 3.74289062 1.38318359 5.25 1.9375 C6.22453125 2.29714844 7.1990625 2.65679687 8.203125 3.02734375 C19.84965441 7.07760328 33.45490154 5.80309126 45 2 C45 2.66 45 3.32 45 4 C33.21924655 8.07168898 20.86048709 11.04070701 9 6 C6.67251306 5.31320058 4.34013344 4.64238957 2 4 C2 3.34 2 2.68 2 2 C1.34 2 0.68 2 0 2 C0 1.34 0 0.68 0 0 Z " fill="#3B7CA5" transform="translate(336,403)"/>
<path d="M0 0 C0.66 0 1.32 0 2 0 C2.19335938 0.67546875 2.38671875 1.3509375 2.5859375 2.046875 C2.84632813 2.93890625 3.10671875 3.8309375 3.375 4.75 C3.63023437 5.63171875 3.88546875 6.5134375 4.1484375 7.421875 C4.9209934 9.76080572 5.83625676 11.83442562 7 14 C6.34 14 5.68 14 5 14 C4.01 13.01 3.02 12.02 2 11 C2 23.54 2 36.08 2 49 C2.66 49.33 3.32 49.66 4 50 C2.68 50 1.36 50 0 50 C0 33.5 0 17 0 0 Z " fill="#173E5F" transform="translate(500,342)"/>
<path d="M0 0 C0.66 0 1.32 0 2 0 C1.79503906 0.71285156 1.59007812 1.42570312 1.37890625 2.16015625 C1.10949219 3.11792969 0.84007812 4.07570313 0.5625 5.0625 C0.16224609 6.47208984 0.16224609 6.47208984 -0.24609375 7.91015625 C-1.95909035 14.93077962 -2.19514514 21.76761887 -2.31640625 28.96484375 C-2.33718735 29.99815323 -2.35796844 31.03146271 -2.37937927 32.09608459 C-2.44443478 35.37649284 -2.50355404 38.65697685 -2.5625 41.9375 C-2.60572711 44.16992951 -2.64934271 46.40235154 -2.69335938 48.63476562 C-2.80007071 54.08976511 -2.90191644 59.54483892 -3 65 C-3.33 65 -3.66 65 -4 65 C-4.02549283 57.91992975 -4.04292658 50.83987148 -4.05493164 43.75976562 C-4.05993994 41.35448769 -4.06674848 38.94921276 -4.07543945 36.54394531 C-4.08765912 33.07356011 -4.09326349 29.6032154 -4.09765625 26.1328125 C-4.10281754 25.06886261 -4.10797882 24.00491272 -4.11329651 22.90872192 C-4.11432291 9.04370763 -4.11432291 9.04370763 -3 4 C-2.34 3.67 -1.68 3.34 -1 3 C-0.67 2.01 -0.34 1.02 0 0 Z " fill="#BBDDE8" transform="translate(247,297)"/>
<path d="M0 0 C0.94230469 0.13277344 1.88460938 0.26554687 2.85546875 0.40234375 C20.47571345 2.65083234 38.2631146 2.6558118 56 3 C56 3.33 56 3.66 56 4 C48.98912658 4.05078757 41.97830078 4.08577044 34.96728516 4.10986328 C32.58315254 4.11990924 30.1990322 4.13354839 27.81494141 4.15087891 C24.38440922 4.17518864 20.95404023 4.18649734 17.5234375 4.1953125 C16.46071625 4.20563507 15.397995 4.21595764 14.30307007 4.22659302 C9.13499906 4.22737326 4.83047286 4.0929635 0 2 C0 1.34 0 0.68 0 0 Z " fill="#C9E6EC" transform="translate(315,450)"/>
<path d="M0 0 C6.22227582 1.11795027 12.62800498 2.5246713 18 6 C19.25390625 8.1328125 19.25390625 8.1328125 20 10 C15.54029485 10.55746314 12.93339655 9.06279586 9.13671875 7.0234375 C5.85457045 5.45136647 2.55044039 4.76080866 -1 4 C-0.67 2.68 -0.34 1.36 0 0 Z " fill="#3585AB" transform="translate(421,163)"/>
<path d="M0 0 C11.86314097 6.16286443 11.86314097 6.16286443 15.29296875 8.92578125 C15.29296875 9.91578125 15.29296875 10.90578125 15.29296875 11.92578125 C11.43298599 11.40416196 9.9835036 10.6163161 7.29296875 7.92578125 C4.68685798 7.20380963 4.68685798 7.20380963 2.29296875 6.92578125 C2.29296875 6.26578125 2.29296875 5.60578125 2.29296875 4.92578125 C1.14828125 4.52359375 1.14828125 4.52359375 -0.01953125 4.11328125 C-2.58084009 2.98154013 -3.90396063 2.01354724 -5.70703125 -0.07421875 C-2.70703125 -1.07421875 -2.70703125 -1.07421875 0 0 Z " fill="#3E83AC" transform="translate(454.70703125,176.07421875)"/>
<path d="M0 0 C0.33 0 0.66 0 1 0 C1.3263233 7.7350708 1.0702365 14.96993193 -0.375 22.5625 C-0.50108643 23.22830078 -0.62717285 23.89410156 -0.75708008 24.58007812 C-1.50012769 28.23273885 -2.49473921 31.59025707 -4 35 C-5.17970839 31.48597502 -4.82629736 28.8713836 -4.1875 25.25 C-3.1793369 19.24870481 -2.38526594 13.25064936 -1.69799805 7.20605469 C-1.1063548 2.2127096 -1.1063548 2.2127096 0 0 Z " fill="#5692B1" transform="translate(477,374)"/>
<path d="M0 0 C0 0.66 0 1.32 0 2 C-0.99 2.66 -1.98 3.32 -3 4 C-3.763125 4.78375 -4.52625 5.5675 -5.3125 6.375 C-8 9 -8 9 -11 10.6875 C-14.76078411 13.58643775 -15.99005559 16.55054284 -17.82421875 20.85546875 C-19 23 -19 23 -22 24 C-19.25745535 14.40109373 -12.61832125 6.73729739 -4.33984375 1.23046875 C-2 0 -2 0 0 0 Z " fill="#4589AC" transform="translate(271,275)"/>
<path d="M0 0 C5.28359629 -0.04965427 10.56705496 -0.08583957 15.85083008 -0.10986328 C17.64610156 -0.1198846 19.44135688 -0.13350533 21.23657227 -0.15087891 C23.82572435 -0.17529809 26.41465951 -0.18652198 29.00390625 -0.1953125 C30.19651817 -0.21079636 30.19651817 -0.21079636 31.41322327 -0.22659302 C36.31375819 -0.22756674 40.38645649 0.288833 45 2 C45.495 2.99 45.495 2.99 46 4 C45.19304687 3.86722656 44.38609375 3.73445312 43.5546875 3.59765625 C29.115075 1.49762768 14.56574489 1.34991926 0 1 C0 0.67 0 0.34 0 0 Z " fill="#629BB8" transform="translate(349,187)"/>
<path d="M0 0 C5.35152885 0.32433508 8.28280043 3.49704824 12 7 C10.171875 7.62109375 10.171875 7.62109375 8 8 C5.25 6.0625 5.25 6.0625 3 4 C2.67 4.66 2.34 5.32 2 6 C2.66 6 3.32 6 4 6 C5.38938077 7.96147874 6.7260411 9.96166576 8 12 C5 12 5 12 3.359375 10.64453125 C-1.027682 5.65052704 -1.027682 5.65052704 -0.875 2.0625 C-0.58625 1.381875 -0.2975 0.70125 0 0 Z " fill="#102D48" transform="translate(325,387)"/>
<path d="M0 0 C0.99 0 1.98 0 3 0 C3 1.65 3 3.3 3 5 C2.01 5 1.02 5 0 5 C0 6.32 0 7.64 0 9 C-2.33333333 9 -4.66666667 9 -7 9 C-8.62514468 10.45833358 -8.62514468 10.45833358 -10 12 C-10.99 11.34 -11.98 10.68 -13 10 C-12.39671875 9.61328125 -11.7934375 9.2265625 -11.171875 8.828125 C-6.13487194 5.56094746 -6.13487194 5.56094746 -1.625 1.625 C-1.08875 1.08875 -0.5525 0.5525 0 0 Z " fill="#112036" transform="translate(392,387)"/>
<path d="M0 0 C0.33 0.33 0.66 0.66 1 1 C0.91015699 2.85772162 0.75388139 4.71247985 0.5625 6.5625 C0.46066406 7.57441406 0.35882813 8.58632813 0.25390625 9.62890625 C0.17011719 10.41136719 0.08632813 11.19382812 0 12 C-1.32 12.33 -2.64 12.66 -4 13 C-3.34 12.67 -2.68 12.34 -2 12 C-2 9.03 -2 6.06 -2 3 C-4.33294775 2.95758277 -6.66702567 2.95907063 -9 3 C-10.32890384 4.1036623 -10.32890384 4.1036623 -10.125 6.875 C-10.14376866 10.03212413 -10.14376866 10.03212413 -9 13 C-9.99 13 -10.98 13 -12 13 C-12.02698189 11.37509046 -12.04638757 9.75005367 -12.0625 8.125 C-12.07410156 7.22007812 -12.08570313 6.31515625 -12.09765625 5.3828125 C-12 3 -12 3 -11 1 C-7.11651516 -0.29449495 -4.09302664 -0.13203312 0 0 Z " fill="#102B42" transform="translate(317,333)"/>
<path d="M0 0 C1.95901454 0.11382653 3.9172338 0.24141125 5.875 0.375 C6.96554687 0.44460938 8.05609375 0.51421875 9.1796875 0.5859375 C12 1 12 1 14 3 C12.68 3 11.36 3 10 3 C9.67 4.32 9.34 5.64 9 7 C6.03 6.67 3.06 6.34 0 6 C0.66 4.68 1.32 3.36 2 2 C1.34 1.34 0.68 0.68 0 0 Z " fill="#1C273F" transform="translate(301,472)"/>
<path d="M0 0 C0.66 0.33 1.32 0.66 2 1 C1.79503906 1.60328125 1.59007812 2.2065625 1.37890625 2.828125 C1.10949219 3.62734375 0.84007812 4.4265625 0.5625 5.25 C0.29566406 6.03890625 0.02882813 6.8278125 -0.24609375 7.640625 C-3.28055977 17.1370886 -2.23658184 27.21775434 -1 37 C-3.02361408 35.34132743 -3.91750159 34.442999 -4.40405273 31.83032227 C-4.41380127 31.00072998 -4.4235498 30.1711377 -4.43359375 29.31640625 C-4.44455078 28.39359863 -4.45550781 27.47079102 -4.46679688 26.52001953 C-4.45712891 25.54403809 -4.44746094 24.56805664 -4.4375 23.5625 C-4.43427734 22.57362793 -4.43105469 21.58475586 -4.42773438 20.56591797 C-4.28488574 13.06020728 -3.23514921 6.84580681 0 0 Z " fill="#4A8AAA" transform="translate(380,308)"/>
<path d="M0 0 C0.54527344 0.27714844 1.09054687 0.55429687 1.65234375 0.83984375 C4.26730788 2.13209724 6.90835263 3.35278657 9.5625 4.5625 C10.51253906 4.99691406 11.46257812 5.43132812 12.44140625 5.87890625 C17.04910553 7.89785235 21.2253118 8.29813888 26.1875 8.5625 C26.93708984 8.60568359 27.68667969 8.64886719 28.45898438 8.69335938 C30.30578375 8.79922685 32.15286834 8.9000976 34 9 C34 9.33 34 9.66 34 10 C17.42747642 11.76709906 17.42747642 11.76709906 10 9 C9.67 8.34 9.34 7.68 9 7 C7.51132724 6.07133836 5.98445294 5.20294664 4.4375 4.375 C3.61121094 3.92898438 2.78492188 3.48296875 1.93359375 3.0234375 C1.29550781 2.68570312 0.65742188 2.34796875 0 2 C0 1.34 0 0.68 0 0 Z " fill="#5290AF" transform="translate(394,366)"/>
<path d="M0 0 C1 3 1 3 0.4375 4.875 C-1.63182052 7.93399555 -4.04074625 9.78055969 -7 12 C-7.66 12 -8.32 12 -9 12 C-9 12.66 -9 13.32 -9 14 C-10.4540625 14.680625 -10.4540625 14.680625 -11.9375 15.375 C-15.07079582 16.65786221 -15.07079582 16.65786221 -16 19 C-17.98 19 -19.96 19 -22 19 C-19.02788838 16.67521012 -15.94083884 14.78006687 -12.6875 12.875 C-7.15160969 9.40950298 -3.59100284 5.40488824 0 0 Z " fill="#4B89AA" transform="translate(459,355)"/>
<path d="M0 0 C0.66 0.33 1.32 0.66 2 1 C0.625 3 0.625 3 -1 5 C-1.66 5 -2.32 5 -3 5 C-3 5.66 -3 6.32 -3 7 C-3.6496875 7.5878125 -3.6496875 7.5878125 -4.3125 8.1875 C-8.73742308 12.94019516 -9.45584266 18.79660631 -10 25 C-10.99 25.33 -11.98 25.66 -13 26 C-12.19546472 14.93763993 -7.75689967 7.75689967 0 0 Z " fill="#4D8DB0" transform="translate(497,297)"/>
<path d="M0 0 C0.66 0 1.32 0 2 0 C2.03738281 0.79921875 2.07476562 1.5984375 2.11328125 2.421875 C2.58206149 10.25326247 3.84033547 17.46154832 6 25 C5.01 24.67 4.02 24.34 3 24 C-0.17377954 16.30717633 -0.39232368 8.19520586 0 0 Z " fill="#4D8DAF" transform="translate(253,325)"/>
<path d="M0 0 C-0.33 1.32 -0.66 2.64 -1 4 C-1.33 3.34 -1.66 2.68 -2 2 C-5.03044006 3.64509603 -7.23161503 5.23161503 -9.6875 7.6875 C-10.8321875 8.8321875 -10.8321875 8.8321875 -12 10 C-12.66 10 -13.32 10 -14 10 C-14.33 11.65 -14.66 13.3 -15 15 C-15.66 15 -16.32 15 -17 15 C-15.6702786 9.54814227 -13.06552973 5.7737453 -9 2 C-5.83445838 0.13000823 -3.67752392 -0.20430688 0 0 Z " fill="#143555" transform="translate(215,296)"/>
<path d="M0 0 C0.33 0 0.66 0 1 0 C1 10.23 1 20.46 1 31 C-3.77737198 29.08905121 -5.62722811 27.66186662 -9 24 C-6 24 -6 24 -4.5 25.4375 C-4.005 25.953125 -3.51 26.46875 -3 27 C-2.01 27.33 -1.02 27.66 0 28 C0 18.76 0 9.52 0 0 Z " fill="#468DB8" transform="translate(498,360)"/>
<path d="M0 0 C0.33 0.99 0.66 1.98 1 3 C-0.59576199 4.50893816 -2.20189911 6.00691076 -3.8125 7.5 C-4.70582031 8.3353125 -5.59914062 9.170625 -6.51953125 10.03125 C-9 12 -9 12 -12 12 C-9.68956625 6.32893533 -5.2661459 2.85876492 0 0 Z " fill="#3D83AF" transform="translate(246,188)"/>
<path d="M0 0 C1.97558594 1.46972656 1.97558594 1.46972656 4 4 C4.34898973 6.95928279 4.46784199 9.53453521 4.390625 12.484375 C4.38496521 13.29996887 4.37930542 14.11556274 4.37347412 14.95587158 C4.35112727 17.55451772 4.30093622 20.15177242 4.25 22.75 C4.22993271 24.51430297 4.21168234 26.2786276 4.1953125 28.04296875 C4.1512683 32.36251328 4.08225422 36.68102093 4 41 C3.67 41 3.34 41 3 41 C2.98018066 40.21987549 2.96036133 39.43975098 2.93994141 38.63598633 C2.8434265 35.0278753 2.73427046 31.4202464 2.625 27.8125 C2.5940625 26.58595703 2.563125 25.35941406 2.53125 24.09570312 C2.27267886 15.92916478 1.43869159 8.04297914 0 0 Z " fill="#C3E3EF" transform="translate(236,313)"/>
<path d="M0 0 C1.74945437 2.22830232 2.97692579 3.9353922 3.9375 6.625 C5.22839693 9.51053431 6.16651175 9.79791408 9 11 C10.75 12.625 10.75 12.625 12 14 C10.35 13.67 8.7 13.34 7 13 C7 12.34 7 11.68 7 11 C5.5459375 11.0309375 5.5459375 11.0309375 4.0625 11.0625 C1 11 1 11 0 10 C-0.07205511 8.31391034 -0.08386068 6.62499341 -0.0625 4.9375 C-0.05347656 4.01839844 -0.04445313 3.09929687 -0.03515625 2.15234375 C-0.02355469 1.44207031 -0.01195312 0.73179687 0 0 Z " fill="#ADBECF" transform="translate(485,377)"/>
<path d="M0 0 C3.41578269 1.04371138 4.72342864 1.52429726 6.5625 4.6875 C8.79337926 7.31544405 8.79337926 7.31544405 11.91796875 7.1015625 C14.96983481 6.83680507 17.97501702 6.48038252 21 6 C17.78447861 8.14368092 14.5589943 9.51169329 11 11 C10.01 11.495 10.01 11.495 9 12 C7.87370125 10.56351736 6.7490101 9.12577415 5.625 7.6875 C4.99851562 6.88699219 4.37203125 6.08648437 3.7265625 5.26171875 C2.42243282 3.55336788 1.19218183 1.78827274 0 0 Z " fill="#448CAB" transform="translate(474,237)"/>
<path d="M0 0 C1 3 1 3 0.14453125 5.0078125 C-0.51482422 6.05582031 -0.51482422 6.05582031 -1.1875 7.125 C-1.61417969 7.82882813 -2.04085937 8.53265625 -2.48046875 9.2578125 C-4 11 -4 11 -6.05078125 11.8671875 C-7.01564453 11.93292969 -7.01564453 11.93292969 -8 12 C-8.66 11.34 -9.32 10.68 -10 10 C-7.04331244 5.52273027 -4.94151304 2.40016348 0 0 Z " fill="#3482AA" transform="translate(199,233)"/>
<path d="M0 0 C1.65 0.33 3.3 0.66 5 1 C0.66266141 6.08515559 -4.82805761 9.45861196 -11 12 C-11.99 11.67 -12.98 11.34 -14 11 C-13.07316406 10.54109375 -12.14632813 10.0821875 -11.19140625 9.609375 C-9.98140226 8.99030319 -8.77178673 8.37047172 -7.5625 7.75 C-6.95083984 7.44964844 -6.33917969 7.14929688 -5.70898438 6.83984375 C-2.13784677 5.04653798 -2.13784677 5.04653798 -0.08984375 1.765625 C-0.06019531 1.18296875 -0.03054688 0.6003125 0 0 Z " fill="#428AAC" transform="translate(452,429)"/>
<path d="M0 0 C4.74983717 4.38446508 8.42852913 9.64279369 12 15 C9 15 9 15 7 13.0625 C6.34 12.381875 5.68 11.70125 5 11 C4.01 10.67 3.02 10.34 2 10 C0.47839986 6.3962102 0 3.94779314 0 0 Z " fill="#498CB1" transform="translate(229,421)"/>
<path d="M0 0 C-1.84258246 1.92863714 -3.34878977 2.92009594 -6.01757812 3.24755859 C-8.43427459 3.29505495 -10.83398212 3.26111304 -13.25 3.1875 C-14.09046875 3.17396484 -14.9309375 3.16042969 -15.796875 3.14648438 C-17.86485938 3.11123464 -19.93251271 3.0574302 -22 3 C-17.21931954 -1.78068046 -6.42005185 -0.10800087 0 0 Z " fill="#2D3648" transform="translate(397,501)"/>
<path d="M0 0 C3.67420866 0.30618405 4.78135513 0.75771784 7.3125 3.5625 C8.1478125 4.7690625 8.1478125 4.7690625 9 6 C8.34 7.32 7.68 8.64 7 10 C5.82438854 8.90536178 4.6597511 7.79892814 3.5 6.6875 C2.52546875 5.76517578 2.52546875 5.76517578 1.53125 4.82421875 C0 3 0 3 0 0 Z " fill="#1C283A" transform="translate(216,501)"/>
<path d="M0 0 C-5.75 4 -5.75 4 -8 4 C-7.34 6.97 -6.68 9.94 -6 13 C-6.99 13.495 -6.99 13.495 -8 14 C-8.50833591 12.75336669 -9.00631145 11.50250613 -9.5 10.25 C-9.7784375 9.55390625 -10.056875 8.8578125 -10.34375 8.140625 C-11 6 -11 6 -11 2 C-9.54494642 1.47007308 -8.08581873 0.9513211 -6.625 0.4375 C-5.81289062 0.14746094 -5.00078125 -0.14257812 -4.1640625 -0.44140625 C-2 -1 -2 -1 0 0 Z " fill="#DCF4F8" transform="translate(228,389)"/>
<path d="M0 0 C4.75 0.875 4.75 0.875 7 2 C6.46799297 6.52205979 4.87701732 9.4836455 2 13 C-0.75 13.875 -0.75 13.875 -3 14 C-2.566875 13.55269531 -2.13375 13.10539062 -1.6875 12.64453125 C1.84244939 8.90974783 1.84244939 8.90974783 3.5625 4.1875 C3.16356528 1.62682173 3.16356528 1.62682173 0 0 Z " fill="#397BA5" transform="translate(392,386)"/>
<path d="M0 0 C-2.11617924 1.06296561 -4.23651696 2.11474585 -6.3671875 3.1484375 C-11.15783545 5.491527 -15.65156728 7.91032412 -20 11 C-20.33 10.01 -20.66 9.02 -21 8 C-20.360625 7.71125 -19.72125 7.4225 -19.0625 7.125 C-16.84793921 6.17176549 -16.84793921 6.17176549 -16 4 C-10.85400392 1.34462726 -5.86288556 -0.61714585 0 0 Z " fill="#478AAD" transform="translate(411,286)"/>
<path d="M0 0 C-0.71285156 0.58007812 -1.42570312 1.16015625 -2.16015625 1.7578125 C-7.49632259 6.11005584 -12.79630884 10.49013433 -18 15 C-17.45418801 11.20450741 -15.94590705 9.69020705 -13.0625 7.25 C-12.35222656 6.63640625 -11.64195312 6.0228125 -10.91015625 5.390625 C-9 4 -9 4 -7 4 C-6.896875 3.360625 -6.79375 2.72125 -6.6875 2.0625 C-6.460625 1.381875 -6.23375 0.70125 -6 0 C-3 -1 -3 -1 0 0 Z " fill="#4789A9" transform="translate(265,221)"/>
<path d="M0 0 C0.66 0 1.32 0 2 0 C1.68839539 2.20845985 1.37567654 4.41676251 1.0625 6.625 C0.88847656 7.85476563 0.71445313 9.08453125 0.53515625 10.3515625 C0.06225699 13.57556184 -0.45151002 16.78812176 -1 20 C-1.66 20 -2.32 20 -3 20 C-2.22095672 6.3667426 -2.22095672 6.3667426 0 0 Z " fill="#3B7EA3" transform="translate(196,309)"/>
<path d="M0 0 C0 0.99 0 1.98 0 3 C-0.99 3.33 -1.98 3.66 -3 4 C-3.226875 4.66 -3.45375 5.32 -3.6875 6 C-5 8 -5 8 -6.90234375 8.484375 C-8.92773766 8.72642559 -10.96442585 8.86867264 -13 9 C-12 6 -12 6 -9.27734375 4.39453125 C-8.17519531 3.87246094 -7.07304687 3.35039062 -5.9375 2.8125 C-4.83277344 2.28269531 -3.72804688 1.75289062 -2.58984375 1.20703125 C-1.73519531 0.80871094 -0.88054687 0.41039062 0 0 Z " fill="#438AB3" transform="translate(268,175)"/>
<path d="M0 0 C-0.99 0 -1.98 0 -3 0 C-3.19335938 0.63421875 -3.38671875 1.2684375 -3.5859375 1.921875 C-5 4 -5 4 -8.0390625 4.828125 C-9.22242188 4.96734375 -10.40578125 5.1065625 -11.625 5.25 C-13.40777344 5.47429687 -13.40777344 5.47429687 -15.2265625 5.703125 C-16.59941406 5.85007813 -16.59941406 5.85007813 -18 6 C-16.44000409 2.88000818 -13.87220503 2.54883154 -10.6875 1.3125 C-9.53636719 0.85488281 -8.38523437 0.39726562 -7.19921875 -0.07421875 C-4.13717158 -0.96030566 -2.88822927 -1.176686 0 0 Z " fill="#E3F3F5" transform="translate(312,197)"/>
<path d="M0 0 C0.33 0 0.66 0 1 0 C0.67 4.62 0.34 9.24 0 14 C-0.99 14 -1.98 14 -3 14 C-3 14.66 -3 15.32 -3 16 C-3.99 16.33 -4.98 16.66 -6 17 C-5.57074219 15.95779297 -5.57074219 15.95779297 -5.1328125 14.89453125 C-3.94269408 11.8535735 -2.89736547 8.78867525 -1.875 5.6875 C-1.52179688 4.61886719 -1.16859375 3.55023438 -0.8046875 2.44921875 C-0.53914063 1.64097656 -0.27359375 0.83273437 0 0 Z " fill="#4B8DAF" transform="translate(466,338)"/>
<path d="M0 0 C3.3 0.33 6.6 0.66 10 1 C9.34 2.32 8.68 3.64 8 5 C5.03 4.67 2.06 4.34 -1 4 C-0.67 2.68 -0.34 1.36 0 0 Z " fill="#3481A8" transform="translate(395,157)"/>
<path d="M0 0 C2.44921875 1.11328125 2.44921875 1.11328125 5 3 C5.70703125 5.91796875 5.70703125 5.91796875 5.8125 9.1875 C5.86019531 10.27417969 5.90789062 11.36085938 5.95703125 12.48046875 C5.97121094 13.31191406 5.98539062 14.14335937 6 15 C2.14766248 11.7260295 2.39897904 8.86754429 2 4 C1.34 4 0.68 4 0 4 C0 2.68 0 1.36 0 0 Z " fill="#3A83AA" transform="translate(500,338)"/>
<path d="M0 0 C0 1.32 0 2.64 0 4 C-3.30938588 7.30938588 -6.52824875 8.75206942 -11 10 C-10.06409496 8.8944811 -9.12620142 7.79064547 -8.1875 6.6875 C-7.66542969 6.07261719 -7.14335937 5.45773438 -6.60546875 4.82421875 C-2.35974304 0 -2.35974304 0 0 0 Z " fill="#D9F0F5" transform="translate(259,226)"/>
<path d="M0 0 C-0.33 0.99 -0.66 1.98 -1 3 C-2.8125 3.87890625 -2.8125 3.87890625 -5 4.5625 C-7.14541038 5.20681284 -7.14541038 5.20681284 -9 6 C-9.33 6.66 -9.66 7.32 -10 8 C-10.99 8 -11.98 8 -13 8 C-13 7.34 -13 6.68 -13 6 C-13.66 5.67 -14.32 5.34 -15 5 C-12.8765984 4.16260219 -10.7512272 3.33019717 -8.625 2.5 C-7.44164062 2.0359375 -6.25828125 1.571875 -5.0390625 1.09375 C-2 0 -2 0 0 0 Z " fill="#32394D" transform="translate(444,463)"/>
<path d="M0 0 C0.99 0.33 1.98 0.66 3 1 C2.4375 3.375 2.4375 3.375 1 6 C-2.625 7.3125 -2.625 7.3125 -6 8 C-6 6 -6 6 -4 4 C-3.67 3.34 -3.34 2.68 -3 2 C-2.01 2 -1.02 2 0 2 C0 1.34 0 0.68 0 0 Z " fill="#F7FAF9" transform="translate(445,439)"/>
<path d="M0 0 C0.66 0.33 1.32 0.66 2 1 C0.51194289 6.80342274 -2.59097555 11.17590879 -6 16 C-6.33 14.68 -6.66 13.36 -7 12 C-6.34 12 -5.68 12 -5 12 C-4.80664062 11.38511719 -4.61328125 10.77023437 -4.4140625 10.13671875 C-4.02347656 8.92435547 -4.02347656 8.92435547 -3.625 7.6875 C-3.24214844 6.48673828 -3.24214844 6.48673828 -2.8515625 5.26171875 C-2 3 -2 3 0 0 Z " fill="#4E8CAD" transform="translate(470,409)"/>
<path d="M0 0 C0.66 0 1.32 0 2 0 C3.3671875 1.57421875 3.3671875 1.57421875 4.875 3.6875 C5.4009375 4.41324219 5.926875 5.13898438 6.46875 5.88671875 C6.9740625 6.58410156 7.479375 7.28148437 8 8 C9.32481269 9.67344761 10.65407903 11.34348188 12 13 C6.83395985 11.91873578 4.82699745 10.03384091 1.98046875 5.8515625 C0.95436317 3.91381731 0.43865397 2.14138605 0 0 Z " fill="#468AAD" transform="translate(260,354)"/>
<path d="M0 0 C0.515625 0.66 1.03125 1.32 1.5625 2 C4.61208585 5.75333644 7.7986681 9.37602035 11 13 C10.34 13.66 9.68 14.32 9 15 C7.62437146 13.71034824 6.29233607 12.37310707 5 11 C5 10.34 5 9.68 5 9 C4.01 8.67 3.02 8.34 2 8 C0.04457812 5.01540871 0 3.73585209 0 0 Z " fill="#5291AF" transform="translate(382,351)"/>
<path d="M0 0 C0.66 0 1.32 0 2 0 C2.31424507 3.45669582 2.37956836 5.39901677 0.5 8.375 C-3.13251074 10.73613198 -5.71843297 10.2854378 -10 10 C-10.33 8.68 -10.66 7.36 -11 6 C-9.515 6.99 -9.515 6.99 -8 8 C-5.45792029 8.33343551 -5.45792029 8.33343551 -3 8 C-0.4345406 5.4345406 -0.45953913 3.52313332 0 0 Z " fill="#0B223C" transform="translate(440,337)"/>
<path d="M0 0 C0.66 0 1.32 0 2 0 C1.81824219 0.52207031 1.63648438 1.04414063 1.44921875 1.58203125 C-0.62559043 7.65749813 -2.36415169 13.79305783 -4 20 C-4.33 20 -4.66 20 -5 20 C-5.36517527 13.42684522 -4.13619737 8.20514474 -2 2 C-1.34 2 -0.68 2 0 2 C0 1.34 0 0.68 0 0 Z " fill="#D9F0F6" transform="translate(488,304)"/>
<path d="M0 0 C0.66 0 1.32 0 2 0 C2 0.66 2 1.32 2 2 C2.66 2 3.32 2 4 2 C4 1.34 4 0.68 4 0 C4.66 0 5.32 0 6 0 C6 1.65 6 3.3 6 5 C4.02 5.33 2.04 5.66 0 6 C-0.38218767 4.34385343 -0.71395102 2.67542976 -1 1 C-0.67 0.67 -0.34 0.34 0 0 Z " fill="#3093BF" transform="translate(309,338)"/>
<path d="M0 0 C0.33 0 0.66 0 1 0 C1.38393977 10.98494354 1.38393977 10.98494354 -1 15 C-1.99 15.66 -2.98 16.32 -4 17 C-2.68 11.39 -1.36 5.78 0 0 Z " fill="#D9F0F5" transform="translate(476,394)"/>
<path d="M0 0 C1.32 0.33 2.64 0.66 4 1 C0.55384615 7.76923077 0.55384615 7.76923077 -2.25 8.9375 C-2.8275 8.958125 -3.405 8.97875 -4 9 C-2.80100302 5.9168649 -1.52299523 2.93720508 0 0 Z " fill="#3682A7" transform="translate(184,251)"/>
<path d="M0 0 C-0.33 0.99 -0.66 1.98 -1 3 C-3.0625 3.6875 -3.0625 3.6875 -5 4 C-5.33 5.32 -5.66 6.64 -6 8 C-6.99 7.01 -7.98 6.02 -9 5 C-8.1875 3.0625 -8.1875 3.0625 -7 1 C-4 0 -4 0 0 0 Z " fill="#1C364F" transform="translate(493,245)"/>
<path d="M0 0 C0 0.66 0 1.32 0 2 C-5.07476794 3.26305335 -9.72796354 4.27036084 -15 4 C-12.3851183 2.25674553 -10.9946567 1.58412043 -8.0625 0.875 C-7.39347656 0.70742188 -6.72445312 0.53984375 -6.03515625 0.3671875 C-4 0 -4 0 0 0 Z " fill="#143859" transform="translate(231,450)"/>
<path d="M0 0 C2.25597827 2.25597827 2.96574192 4.04603867 4.125 7 C4.47820312 7.886875 4.83140625 8.77375 5.1953125 9.6875 C6 12 6 12 6 14 C3 13 3 13 1.3125 9.8125 C-0.01535157 6.4652075 -0.26451861 3.61508773 0 0 Z " fill="#5993B5" transform="translate(218,398)"/>
<path d="M0 0 C0.33 0 0.66 0 1 0 C1 2.31 1 4.62 1 7 C3.31 7.33 5.62 7.66 8 8 C7.67 8.66 7.34 9.32 7 10 C4.25913944 10.22223194 2.56036279 10.34781139 0.1875 8.875 C-1.50813053 6.19768863 -1.2694875 4.09910627 -1 1 C-0.67 0.67 -0.34 0.34 0 0 Z " fill="#3C7B9C" transform="translate(430,336)"/>
<path d="M0 0 C0.99 0.33 1.98 0.66 3 1 C1.69118353 2.66956087 0.37785174 4.33558304 -0.9375 6 C-1.66839844 6.928125 -2.39929688 7.85625 -3.15234375 8.8125 C-3.76207031 9.534375 -4.37179687 10.25625 -5 11 C-5.33 11 -5.66 11 -6 11 C-6.3125 8.1875 -6.3125 8.1875 -6 5 C-3.5625 3.25 -3.5625 3.25 -1 2 C-0.67 1.34 -0.34 0.68 0 0 Z " fill="#4689A9" transform="translate(267,295)"/>
<path d="M0 0 C6.58638743 6.40837696 6.58638743 6.40837696 8 9 C7.6875 12.25 7.6875 12.25 7 15 C6.01 14.67 5.02 14.34 4 14 C4.66 14 5.32 14 6 14 C5.57316368 12.72554546 5.13302798 11.45554118 4.6875 10.1875 C4.44386719 9.47980469 4.20023438 8.77210938 3.94921875 8.04296875 C3.11017557 5.92300812 3.11017557 5.92300812 1.39453125 4.42578125 C0 3 0 3 0 0 Z " fill="#4795BD" transform="translate(514,222)"/>
<path d="M0 0 C-0.875 3.875 -0.875 3.875 -2 5 C-3.99958364 5.04080783 -6.00045254 5.04254356 -8 5 C-8 4.01 -8 3.02 -8 2 C-5.09399739 0.74335022 -3.20395416 0 0 0 Z " fill="#3D88AF" transform="translate(279,171)"/>
<path d="M0 0 C1.6266848 0.28211877 3.25132896 0.57602375 4.875 0.875 C5.77992188 1.03742188 6.68484375 1.19984375 7.6171875 1.3671875 C10 2 10 2 12 4 C11.34 4 10.68 4 10 4 C9.67 4.66 9.34 5.32 9 6 C9 5.34 9 4.68 9 4 C7.88625 3.896875 6.7725 3.79375 5.625 3.6875 C3.830625 3.3471875 3.830625 3.3471875 2 3 C1.34 2.01 0.68 1.02 0 0 Z " fill="#1F2538" transform="translate(284,467)"/>
<path d="M0 0 C0 0.33 0 0.66 0 1 C-1.65 1 -3.3 1 -5 1 C-5 1.66 -5 2.32 -5 3 C-10.61 2.67 -16.22 2.34 -22 2 C-22 1.67 -22 1.34 -22 1 C-14.65623924 0.42240084 -7.36901413 -0.14738028 0 0 Z " fill="#CAE8F1" transform="translate(393,452)"/>
<path d="M0 0 C0.33 0.99 0.66 1.98 1 3 C-4.14285714 7.42857143 -4.14285714 7.42857143 -8 8 C-8 5.69 -8 3.38 -8 1 C-7.67 1 -7.34 1 -7 1 C-7 2.65 -7 4.3 -7 6 C-6.34 6 -5.68 6 -5 6 C-5 5.34 -5 4.68 -5 4 C-3.37373596 2.61767557 -1.7074998 1.28062485 0 0 Z " fill="#4A8DAF" transform="translate(230,382)"/>
<path d="M0 0 C0.28875 0.61875 0.5775 1.2375 0.875 1.875 C1.93720042 4.13325765 1.93720042 4.13325765 4 6 C6.58354218 6.16687448 6.58354218 6.16687448 9 6 C9 6.66 9 7.32 9 8 C6.69 8.33 4.38 8.66 2 9 C-0.29013653 5.5647952 -0.17842973 4.014669 0 0 Z " fill="#4184A6" transform="translate(306,337)"/>
<path d="M0 0 C2.31 0 4.62 0 7 0 C6.34 1.32 5.68 2.64 5 4 C2.69 4 0.38 4 -2 4 C-1.34 2.68 -0.68 1.36 0 0 Z " fill="#3A7BA7" transform="translate(325,156)"/>
<path d="M0 0 C1.75 1.5625 1.75 1.5625 3 3 C2.01 3.495 2.01 3.495 1 4 C0.360625 3.67 -0.27875 3.34 -0.9375 3 C-3.1118245 1.64925728 -3.1118245 1.64925728 -6 3 C-6.99 2.34 -7.98 1.68 -9 1 C-5.61546945 -0.59825054 -3.53366945 -1.53125676 0 0 Z " fill="#213953" transform="translate(250,445)"/>
<path d="M0 0 C6.92088947 -0.60709557 9.67113839 0.55928199 15 5 C14.67 5.66 14.34 6.32 14 7 C13.40832031 6.65066406 12.81664062 6.30132812 12.20703125 5.94140625 C11.41683594 5.48636719 10.62664063 5.03132813 9.8125 4.5625 C9.03519531 4.11003906 8.25789063 3.65757812 7.45703125 3.19140625 C4.95068023 1.97608501 2.74209635 1.42373425 0 1 C0 0.67 0 0.34 0 0 Z " fill="#3C7FA8" transform="translate(502,296)"/>
<path d="M0 0 C0.66 0.33 1.32 0.66 2 1 C0.6875 3 0.6875 3 -1 5 C-1.99 5 -2.98 5 -4 5 C-4 5.66 -4 6.32 -4 7 C-5.65 7.33 -7.3 7.66 -9 8 C-6.14723863 5.06799526 -3.34920216 2.35684596 0 0 Z " fill="#D4F0F5" transform="translate(277,290)"/>
<path d="M0 0 C0 0.66 0 1.32 0 2 C-0.99 2 -1.98 2 -3 2 C-3.185625 2.61875 -3.37125 3.2375 -3.5625 3.875 C-5.71437233 7.05602866 -8.37533763 7.19451947 -12 8 C-4.43243243 0 -4.43243243 0 0 0 Z " fill="#D1EDF3" transform="translate(404,289)"/>
<path d="M0 0 C0.66 0.33 1.32 0.66 2 1 C0.515 2.485 0.515 2.485 -1 4 C-0.67 4.66 -0.34 5.32 0 6 C-0.33 6.66 -0.66 7.32 -1 8 C-3.97 7.505 -3.97 7.505 -7 7 C-4.66666667 4.66666667 -2.33333333 2.33333333 0 0 Z " fill="#3E85AC" transform="translate(230,199)"/>
<path d="M0 0 C0.33 0.99 0.66 1.98 1 3 C1.66 3 2.32 3 3 3 C4.38938077 4.96147874 5.7260411 6.96166576 7 9 C4 9 4 9 1.25 6.75 C-1 4 -1 4 -0.8125 1.6875 C-0.4103125 0.8521875 -0.4103125 0.8521875 0 0 Z " fill="#0D253D" transform="translate(326,390)"/>
<path d="M0 0 C0.51949219 0.42152344 1.03898438 0.84304688 1.57421875 1.27734375 C6.70146308 5.43428979 6.70146308 5.43428979 13 7 C13 7.33 13 7.66 13 8 C8.76438149 8.33884948 6.39223364 8.19968258 2.5625 6.25 C1.716875 5.5075 0.87125 4.765 0 4 C0 2.68 0 1.36 0 0 Z " fill="#397AA3" transform="translate(202,383)"/>
<path d="M0 0 C2.31 0 4.62 0 7 0 C7 0.33 7 0.66 7 1 C5.02 1.66 3.04 2.32 1 3 C0.92572162 6.34252724 0.93453047 8.8035914 2 12 C1.01 12 0.02 12 -1 12 C-1.02698189 10.37509046 -1.04638757 8.75005367 -1.0625 7.125 C-1.07410156 6.22007812 -1.08570313 5.31515625 -1.09765625 4.3828125 C-1 2 -1 2 0 0 Z " fill="#14334C" transform="translate(306,334)"/>
<path d="M0 0 C1.13732426 3.40401948 0.83989957 5.77456664 0.0625 9.25 C-0.13214844 10.14203125 -0.32679688 11.0340625 -0.52734375 11.953125 C-0.68332031 12.62859375 -0.83929688 13.3040625 -1 14 C-1.66 13.67 -2.32 13.34 -3 13 C-2.45144652 8.428721 -1.58255197 4.32564205 0 0 Z " fill="#5896B2" transform="translate(248,299)"/>
<path d="M0 0 C0.99 0.33 1.98 0.66 3 1 C3.33 1.99 3.66 2.98 4 4 C1.525 5.485 1.525 5.485 -1 7 C-1.66 6.01 -2.32 5.02 -3 4 C-2.34 3.34 -1.68 2.68 -1 2 C-0.67 1.34 -0.34 0.68 0 0 Z " fill="#1C263A" transform="translate(491,509)"/>
<path d="M0 0 C0.9075 0.804375 1.815 1.60875 2.75 2.4375 C5.10309908 4.41142671 6.86938046 5.63877467 10 6 C9.67 6.99 9.34 7.98 9 9 C5.01618925 6.83735988 2.11016455 4.28788824 -1 1 C-0.67 0.67 -0.34 0.34 0 0 Z " fill="#4F8CAE" transform="translate(262,425)"/>
<path d="M0 0 C2.62901288 1.52206009 4.84365964 2.84365964 7 5 C7 5.99 7 6.98 7 8 C5.0625 7.1875 5.0625 7.1875 3 6 C2.67 5.01 2.34 4.02 2 3 C1.34 3 0.68 3 0 3 C0 2.01 0 1.02 0 0 Z " fill="#191A2B" transform="translate(327,390)"/>
<path d="M0 0 C0.99 0 1.98 0 3 0 C3.66 3.96 4.32 7.92 5 12 C4.34 12 3.68 12 3 12 C2.01 8.04 1.02 4.08 0 0 Z " fill="#4487AA" transform="translate(463,310)"/>
<path d="M0 0 C3.82669043 3.42388092 5.72278474 6.00724943 7 11 C4 10 4 10 2.83203125 8.22265625 C2.49558594 7.50980469 2.15914063 6.79695313 1.8125 6.0625 C1.46832031 5.35222656 1.12414062 4.64195312 0.76953125 3.91015625 C0 2 0 2 0 0 Z " fill="#DBF3F7" transform="translate(333,301)"/>
<path d="M0 0 C2 3 2 3 2 6 C-1.3 6.33 -4.6 6.66 -8 7 C-8 6.34 -8 5.68 -8 5 C-5.36 4.67 -2.72 4.34 0 4 C0 2.68 0 1.36 0 0 Z " fill="#C6DDE4" transform="translate(505,290)"/>
<path d="M0 0 C9.59453303 1.74259681 9.59453303 1.74259681 13 5 C8.07284004 5.46192125 4.49267375 3.8275283 0 2 C0 1.34 0 0.68 0 0 Z " fill="#DBF4F8" transform="translate(431,286)"/>
<path d="M0 0 C-0.5625 1.875 -0.5625 1.875 -2 4 C-5.625 5.25 -5.625 5.25 -9 6 C-9.66 5.34 -10.32 4.68 -11 4 C-9.5437455 3.32880451 -8.08492133 2.66318193 -6.625 2 C-5.81289063 1.62875 -5.00078125 1.2575 -4.1640625 0.875 C-2 0 -2 0 0 0 Z " fill="#323C4F" transform="translate(439,487)"/>
<path d="M0 0 C-2.85478326 1.90318884 -4.41941308 2.4619099 -7.6875 3.125 C-8.49574219 3.29257812 -9.30398437 3.46015625 -10.13671875 3.6328125 C-10.75160156 3.75398438 -11.36648437 3.87515625 -12 4 C-12 3.34 -12 2.68 -12 2 C-8.09971775 -0.60018816 -4.52565431 -0.15085514 0 0 Z " fill="#3A7DA9" transform="translate(237,447)"/>
<path d="M0 0 C1.65 1.65 3.3 3.3 5 5 C2.36 5.99 -0.28 6.98 -3 8 C-3 7.34 -3 6.68 -3 6 C-2.01 6 -1.02 6 0 6 C0 4.02 0 2.04 0 0 Z " fill="#4085AD" transform="translate(243,439)"/>
<path d="M0 0 C0.33 0.66 0.66 1.32 1 2 C-1.31 4.97 -3.62 7.94 -6 11 C-6.66 10.67 -7.32 10.34 -8 10 C-7.04367001 8.70684939 -6.08486149 7.41553147 -5.125 6.125 C-4.59132813 5.40570313 -4.05765625 4.68640625 -3.5078125 3.9453125 C-2 2 -2 2 0 0 Z " fill="#D2EDF3" transform="translate(391,297)"/>
<path d="M0 0 C0.33 0 0.66 0 1 0 C1 2.64 1 5.28 1 8 C-1.3431213 7.74438677 -3.67843403 7.40729228 -6 7 C-6.33 6.34 -6.66 5.68 -7 5 C-4.69 5.33 -2.38 5.66 0 6 C0 4.02 0 2.04 0 0 Z " fill="#3D79A2" transform="translate(523,358)"/>
<path d="M0 0 C0.33 1.32 0.66 2.64 1 4 C-0.21484375 5.921875 -0.21484375 5.921875 -1.9375 7.75 C-2.50339844 8.36359375 -3.06929687 8.9771875 -3.65234375 9.609375 C-4.31943359 10.29773438 -4.31943359 10.29773438 -5 11 C-5.33 10.34 -5.66 9.68 -6 9 C-4.02 6.03 -2.04 3.06 0 0 Z " fill="#DAF0F5" transform="translate(235,251)"/>
<path d="M0 0 C-0.69867188 0.27714844 -1.39734375 0.55429688 -2.1171875 0.83984375 C-3.02726562 1.20207031 -3.93734375 1.56429687 -4.875 1.9375 C-5.77992188 2.29714844 -6.68484375 2.65679687 -7.6171875 3.02734375 C-9.96137667 3.94901262 -9.96137667 3.94901262 -12 5 C-12.33 3.68 -12.66 2.36 -13 1 C-11.58622218 0.63447197 -10.16879424 0.28304505 -8.75 -0.0625 C-7.96109375 -0.25972656 -7.1721875 -0.45695313 -6.359375 -0.66015625 C-3.89605178 -1.01497267 -2.34395868 -0.76877544 0 0 Z " fill="#3E7EA3" transform="translate(495,244)"/>
<path d="M0 0 C1.68762851 1.6454378 3.3540349 3.31288577 5 5 C5 5.33 5 5.66 5 6 C2.69 6 0.38 6 -2 6 C-1.34 4.02 -0.68 2.04 0 0 Z " fill="#3D7394" transform="translate(522,232)"/>
<path d="M0 0 C1.98 0.99 3.96 1.98 6 3 C5.67 3.99 5.34 4.98 5 6 C3.02 5.01 1.04 4.02 -1 3 C-0.67 2.01 -0.34 1.02 0 0 Z " fill="#20263E" transform="translate(260,533)"/>
<path d="M0 0 C0.66 0.33 1.32 0.66 2 1 C2 2.98 2 4.96 2 7 C0.35 7 -1.3 7 -3 7 C-1.125 2.25 -1.125 2.25 0 0 Z " fill="#E5F4F5" transform="translate(471,412)"/>
<path d="M0 0 C2.0625 0.4375 2.0625 0.4375 4 1 C2.54550599 2.0055761 1.08627557 3.00430435 -0.375 4 C-1.59316406 4.8353125 -1.59316406 4.8353125 -2.8359375 5.6875 C-5 7 -5 7 -7 7 C-7 6.01 -7 5.02 -7 4 C-6.030625 3.525625 -5.06125 3.05125 -4.0625 2.5625 C-1.19522563 1.29806053 -1.19522563 1.29806053 0 0 Z " fill="#478BAA" transform="translate(277,288)"/>
<path d="M0 0 C3.3 0 6.6 0 10 0 C10 0.66 10 1.32 10 2 C10.99 2.33 11.98 2.66 13 3 C10.09905209 4.45047396 8.44027404 3.45356803 5.375 2.5625 C4.37210937 2.27503906 3.36921875 1.98757813 2.3359375 1.69140625 C1.56507813 1.46324219 0.79421875 1.23507812 0 1 C0 0.67 0 0.34 0 0 Z " fill="#518EAF" transform="translate(429,285)"/>
<path d="M0 0 C-0.99 0.33 -1.98 0.66 -3 1 C-3.33 1.99 -3.66 2.98 -4 4 C-6.31 4 -8.62 4 -11 4 C-3.77464789 -1.88732394 -3.77464789 -1.88732394 0 0 Z " fill="#5797B4" transform="translate(284,270)"/>
<path d="M0 0 C2 3 2 3 2 6 C0.125 6.625 0.125 6.625 -2 7 C-2.66 6.34 -3.32 5.68 -4 5 C-2.68 3.35 -1.36 1.7 0 0 Z " fill="#3F88AC" transform="translate(193,238)"/>
<path d="M0 0 C0.33 0.99 0.66 1.98 1 3 C-2.97610294 8.68014706 -2.97610294 8.68014706 -6.17578125 9.6796875 C-7.07876953 9.83824219 -7.07876953 9.83824219 -8 10 C-7.59007812 9.52949219 -7.18015625 9.05898437 -6.7578125 8.57421875 C-6.21898437 7.95160156 -5.68015625 7.32898438 -5.125 6.6875 C-4.59132812 6.07261719 -4.05765625 5.45773438 -3.5078125 4.82421875 C-1.8359553 2.86501788 -1.8359553 2.86501788 0 0 Z " fill="#D7EFF5" transform="translate(247,236)"/>
<path d="M0 0 C0.66 0.33 1.32 0.66 2 1 C-1.17320782 4.53586014 -3.16743695 6.58578031 -8 7 C-5.42215154 4.35247996 -3.08351902 2.05567935 0 0 Z " fill="#D5F1F5" transform="translate(274,213)"/>
<path d="M0 0 C1.32 1.32 2.64 2.64 4 4 C3.67 4.99 3.34 5.98 3 7 C2.34 7 1.68 7 1 7 C-0.625 4.5 -0.625 4.5 -2 2 C-1.34 1.34 -0.68 0.68 0 0 Z " fill="#1C2439" transform="translate(212,495)"/>
<path d="M0 0 C-0.8125 1.9375 -0.8125 1.9375 -2 4 C-2.99 4.33 -3.98 4.66 -5 5 C-5.33 3.68 -5.66 2.36 -6 1 C-4 0 -4 0 0 0 Z " fill="#171825" transform="translate(321,346)"/>
<path d="M0 0 C0 0.66 0 1.32 0 2 C-2.75078884 2.91692961 -4.35948913 3.10886083 -7.1875 3.0625 C-9.0746875 3.0315625 -9.0746875 3.0315625 -11 3 C-6.9903514 0.32690093 -4.82843714 0 0 0 Z " fill="#D5F0F6" transform="translate(415,286)"/>
<path d="M0 0 C0 0.66 0 1.32 0 2 C-0.99 2.66 -1.98 3.32 -3 4 C-4.67423683 5.32381517 -6.34211215 6.65576661 -8 8 C-7.8125 5.6875 -7.8125 5.6875 -7 3 C-2.96551724 0 -2.96551724 0 0 0 Z " fill="#438BB3" transform="translate(271,275)"/>
<path d="M0 0 C-2.90092502 1.93395001 -3.89674737 2.30131941 -7.1875 2.625 C-8.445625 2.74875 -9.70375 2.8725 -11 3 C-10 1 -10 1 -7.75 -0.1875 C-4.69751418 -1.08937081 -3.02265546 -0.86361585 0 0 Z " fill="#3A7BA7" transform="translate(506,240)"/>
<path d="M0 0 C2.4375 0.8125 2.4375 0.8125 5 2 C5.33 2.99 5.66 3.98 6 5 C6.66 5 7.32 5 8 5 C7.67 5.99 7.34 6.98 7 8 C5.83035398 6.8572081 4.66435444 5.71068285 3.5 4.5625 C2.8503125 3.92441406 2.200625 3.28632813 1.53125 2.62890625 C0 1 0 1 0 0 Z " fill="#A4C1D1" transform="translate(241,436)"/>
<path d="M0 0 C0.33 0.99 0.66 1.98 1 3 C0.34 3.66 -0.32 4.32 -1 5 C-1.16677282 8.58343976 -1.16677282 8.58343976 -1 12 C-1.66 12 -2.32 12 -3 12 C-3.08131463 10.56344146 -3.13933559 9.1255517 -3.1875 7.6875 C-3.22230469 6.88699219 -3.25710938 6.08648437 -3.29296875 5.26171875 C-2.93801608 2.52148416 -2.10633718 1.70828921 0 0 Z " fill="#373941" transform="translate(408,315)"/>
<path d="M0 0 C-3.00617269 3.00617269 -5.82381598 2.59585316 -10 3 C-10 2.34 -10 1.68 -10 1 C-6.78548731 -0.60725635 -3.56387464 -0.05748185 0 0 Z " fill="#DFF5F9" transform="translate(292,266)"/>
<path d="M0 0 C4.40114397 0.50298788 6.71195019 2.08772731 10 5 C6.28111761 4.49287967 3.26545761 3.88391785 0 2 C0 1.34 0 0.68 0 0 Z " fill="#DFF4F8" transform="translate(428,204)"/>
<path d="M0 0 C-1 3 -1 3 -3.3125 4.25 C-6.16597407 5.04631835 -7.24802325 4.8214856 -10 4 C-8.71086513 3.32845067 -7.41859796 2.66291141 -6.125 2 C-5.40570313 1.62875 -4.68640625 1.2575 -3.9453125 0.875 C-2 0 -2 0 0 0 Z " fill="#DAF2F6" transform="translate(294,203)"/>
<path d="M0 0 C1.98 0.66 3.96 1.32 6 2 C4.1875 3.5625 4.1875 3.5625 2 5 C1.01 4.67 0.02 4.34 -1 4 C-0.67 2.68 -0.34 1.36 0 0 Z " fill="#377AA0" transform="translate(473,188)"/>
<path d="M0 0 C2 2 2 2 2 4 C0.02 4.33 -1.96 4.66 -4 5 C-3.6875 3.0625 -3.6875 3.0625 -3 1 C-2.01 0.67 -1.02 0.34 0 0 Z " fill="#1C263B" transform="translate(455,535)"/>
<path d="M0 0 C0.33 1.32 0.66 2.64 1 4 C-1.4375 6.75 -1.4375 6.75 -4 9 C-4.66 8.67 -5.32 8.34 -6 8 C-4.02 5.36 -2.04 2.72 0 0 Z " fill="#DDF3F7" transform="translate(467,419)"/>
<path d="M0 0 C4.455 1.98 4.455 1.98 9 4 C9 4.33 9 4.66 9 5 C3.5 5.36666667 3.5 5.36666667 1.125 3.625 C0 2 0 2 0 0 Z " fill="#0E243E" transform="translate(337,395)"/>
<path d="M0 0 C2.3125 0.3125 2.3125 0.3125 5 1 C6.3921875 1.2784375 6.3921875 1.2784375 7.8125 1.5625 C8.534375 1.706875 9.25625 1.85125 10 2 C10 2.33 10 2.66 10 3 C5.83861737 3.08159574 2.0527516 2.98248524 -2 2 C-1.34 1.34 -0.68 0.68 0 0 Z " fill="#21425D" transform="translate(212,388)"/>
<path d="M0 0 C0 0.66 0 1.32 0 2 C-0.66 2 -1.32 2 -2 2 C-2 2.66 -2 3.32 -2 4 C-4.64 4 -7.28 4 -10 4 C-8.66666667 3.33333333 -7.33333333 2.66666667 -6 2 C-5.29875 1.62875 -4.5975 1.2575 -3.875 0.875 C-2 0 -2 0 0 0 Z " fill="#5691B0" transform="translate(321,370)"/>
<path d="M0 0 C0.33 0.99 0.66 1.98 1 3 C-1.3125 4.5625 -1.3125 4.5625 -4 6 C-4.99 5.67 -5.98 5.34 -7 5 C-4.69 3.35 -2.38 1.7 0 0 Z " fill="#3B87AF" transform="translate(335,359)"/>
<path d="M0 0 C3.465 1.485 3.465 1.485 7 3 C6.67 3.66 6.34 4.32 6 5 C4.125 4.75 4.125 4.75 2 4 C0.75 1.9375 0.75 1.9375 0 0 Z " fill="#23252F" transform="translate(432,304)"/>
<path d="M0 0 C1.32 0.33 2.64 0.66 4 1 C5.3125 3.375 5.3125 3.375 6 6 C5.67 6.99 5.34 7.98 5 9 C3.35 6.03 1.7 3.06 0 0 Z " fill="#E1F5F8" transform="translate(467,288)"/>
<path d="M0 0 C-3.42346555 3.14958831 -6.44262737 3.56179109 -11 4 C-9.71264403 1.42528807 -8.71510189 1.29583343 -6.0625 0.3125 C-5.35222656 0.04050781 -4.64195312 -0.23148438 -3.91015625 -0.51171875 C-2 -1 -2 -1 0 0 Z " fill="#C8E9EF" transform="translate(305,199)"/>
<path d="M0 0 C0.66 0.33 1.32 0.66 2 1 C1.01 1.66 0.02 2.32 -1 3 C-0.67 2.01 -0.34 1.02 0 0 Z M-2 3 C-1.67 4.32 -1.34 5.64 -1 7 C-2.32 7.33 -3.64 7.66 -5 8 C-3.125 4.125 -3.125 4.125 -2 3 Z " fill="#377DA6" transform="translate(239,192)"/>
<path d="M0 0 C2.475 0.99 2.475 0.99 5 2 C5 2.99 5 3.98 5 5 C3.35 4.67 1.7 4.34 0 4 C0 2.68 0 1.36 0 0 Z " fill="#3782A6" transform="translate(465,183)"/>
<path d="M0 0 C0.99 0 1.98 0 3 0 C3.33 1.65 3.66 3.3 4 5 C2.35 4.67 0.7 4.34 -1 4 C-0.67 2.68 -0.34 1.36 0 0 Z " fill="#1C2737" transform="translate(317,554)"/>
<path d="M0 0 C4 4.625 4 4.625 4 8 C3.01 7.67 2.02 7.34 1 7 C0.67 4.69 0.34 2.38 0 0 Z " fill="#2B8AC3" transform="translate(255,411)"/>
<path d="M0 0 C0.33 0.99 0.66 1.98 1 3 C-1.35438733 4.42944945 -2.48032433 5.08661261 -5.25 4.625 C-5.8275 4.41875 -6.405 4.2125 -7 4 C-4.69 2.68 -2.38 1.36 0 0 Z " fill="#377BA2" transform="translate(388,400)"/>
<path d="M0 0 C2.32472205 2.85306797 3.7508258 5.54074837 5 9 C2 8 2 8 0.8125 6.1875 C0 4 0 4 0 0 Z " fill="#A4C1D8" transform="translate(485,377)"/>
<path d="M0 0 C0.66 0.99 1.32 1.98 2 3 C-0.75 8.875 -0.75 8.875 -3 10 C-2.01 6.7 -1.02 3.4 0 0 Z " fill="#CEE7EE" transform="translate(220,277)"/>
<path d="M0 0 C3.25 -0.25 3.25 -0.25 7 0 C8.32 1.32 9.64 2.64 11 4 C7.37 3.01 3.74 2.02 0 1 C0 0.67 0 0.34 0 0 Z " fill="#CDE9F0" transform="translate(427,266)"/>
<path d="M0 0 C1.7074998 1.28062485 3.37373596 2.61767557 5 4 C5 4.66 5 5.32 5 6 C3.68 5.67 2.36 5.34 1 5 C0.67 3.35 0.34 1.7 0 0 Z " fill="#3C84AE" transform="translate(513,224)"/>
</svg>
